<?xml version="1.0" encoding="iso-8859-1"?>
<!-- Generator: Adobe Illustrator 16.0.0, SVG Export Plug-In . SVG Version: 6.00 Build 0)  -->
<!DOCTYPE svg PUBLIC "-//W3C//DTD SVG 1.1//EN" "http://www.w3.org/Graphics/SVG/1.1/DTD/svg11.dtd">
<svg xmlns="http://www.w3.org/2000/svg" xmlns:xlink="http://www.w3.org/1999/xlink" version="1.1" id="Capa_1" x="0px" y="0px" width="512px" height="512px" viewBox="0 0 402.927 402.927" style="enable-background:new 0 0 402.927 402.927;" xml:space="preserve">
<g>
	<g id="Layer_8_6_">
		<path d="M148.169,2.796C151.396,0.934,154.99,0,158.599,0c3.597,0,7.196,0.934,10.43,2.79l216.437,180.612    c6.443,3.727,10.427,10.61,10.427,18.061c0,7.447-3.972,14.339-10.427,18.063L169.022,400.13c-6.452,3.729-14.414,3.729-20.853,0    c-6.452-3.73-10.427-10.61-10.427-18.063V20.859C137.749,13.409,141.717,6.52,148.169,2.796z M7.035,8.553V394.36    c0,4.604,3.736,8.346,8.334,8.34h68.813c4.61,0,8.346-3.735,8.346-8.34V8.559c0-4.611-3.736-8.346-8.346-8.34H15.369    C10.771,0.213,7.035,3.948,7.035,8.553z" fill="#909599"/>
	</g>
</g>
<g>
</g>
<g>
</g>
<g>
</g>
<g>
</g>
<g>
</g>
<g>
</g>
<g>
</g>
<g>
</g>
<g>
</g>
<g>
</g>
<g>
</g>
<g>
</g>
<g>
</g>
<g>
</g>
<g>
</g>
</svg>
