<?xml version="1.0"?>
<svg xmlns="http://www.w3.org/2000/svg" id="Layer_1" data-name="Layer 1" viewBox="0 0 512 512" width="512px" height="512px" class=""><g><title class="active-path" style="fill:#98949c" data-old_color="#095CA1">a1</title><path d="M288.243,55.757A6,6,0,0,0,284,54H144a34.038,34.038,0,0,0-34,34V424a34.038,34.038,0,0,0,34,34H368a34.038,34.038,0,0,0,34-34V172a6,6,0,0,0-1.757-4.243ZM290,74.485,381.515,166H312a22.025,22.025,0,0,1-22-22ZM368,446H144a22.025,22.025,0,0,1-22-22V88a22.025,22.025,0,0,1,22-22H278v78a34.038,34.038,0,0,0,34,34h78V424A22.025,22.025,0,0,1,368,446Z" data-original="#000000" class="active-path" data-old_color="#095CA1" fill="#98949c"/><path d="M271,230H241a6,6,0,0,0-6,6V386a6,6,0,0,0,6,6h30a6,6,0,0,0,6-6V236A6,6,0,0,0,271,230Zm-6,150H247V242h18Z" data-original="#000000" class="active-path" data-old_color="#095CA1" fill="#98949c"/><path d="M211,290H181a6,6,0,0,0-6,6v90a6,6,0,0,0,6,6h30a6,6,0,0,0,6-6V296A6,6,0,0,0,211,290Zm-6,90H187V302h18Z" data-original="#000000" class="active-path" data-old_color="#095CA1" fill="#98949c"/><path d="M331,270H301a6,6,0,0,0-6,6V386a6,6,0,0,0,6,6h30a6,6,0,0,0,6-6V276A6,6,0,0,0,331,270Zm-6,110H307V282h18Z" data-original="#000000" class="active-path" data-old_color="#095CA1" fill="#98949c"/></g> </svg>
