<svg id="SvgjsSvg1018" width="288" height="288" xmlns="http://www.w3.org/2000/svg" version="1.1" xmlns:xlink="http://www.w3.org/1999/xlink" xmlns:svgjs="http://svgjs.com/svgjs"><defs id="SvgjsDefs1019"></defs><g id="SvgjsG1020" transform="matrix(0.9167,0,0,0.9167,11.995200000000011,11.995199682235722)"><!--?xml version="1.0" encoding="UTF-8"?--><svg xmlns="http://www.w3.org/2000/svg" viewBox="0 0 16 16" width="288" height="288"><path d="M16 4.024l-3.991-4-4.009 4 1.5 1.451 1.5-1.5v5.538c0 2.46-2.078 4.462-4.538 4.462S2 11.974 2 9.514c0-1.252.531-2.455 1.458-3.298L2.11 4.737A6.476 6.476 0 0 0 0 9.514c0 3.563 2.899 6.462 6.462 6.462S13 13.077 13 9.516v-5.54l1.5 1.5L16 4.024z" fill="#88888a" class="color000 svgShape"></path><circle cx="6.5" cy="9.524" r="2.5" fill="#88888a" class="color000 svgShape"></circle><metadata><rdf:rdf xmlns:rdf="http://www.w3.org/1999/02/22-rdf-syntax-ns#" xmlns:rdfs="http://www.w3.org/2000/01/rdf-schema#" xmlns:dc="http://purl.org/dc/elements/1.1/"><rdf:description about="https://iconscout.com/legal#licenses" dc:title="deploy" dc:description="deploy" dc:publisher="Iconscout" dc:date="2017-09-15" dc:format="image/svg+xml" dc:language="en"><dc:creator><rdf:bag><rdf:li>IBM-Design</rdf:li></rdf:bag></dc:creator></rdf:description></rdf:rdf></metadata></svg></g></svg>