<?xml version="1.0" encoding="iso-8859-1"?>
<!-- Generator: Adobe Illustrator 19.0.0, SVG Export Plug-In . SVG Version: 6.00 Build 0)  -->
<svg xmlns="http://www.w3.org/2000/svg" xmlns:xlink="http://www.w3.org/1999/xlink" version="1.1" id="Layer_1" x="0px" y="0px" viewBox="0 0 512 512" style="enable-background:new 0 0 512 512;" xml:space="preserve" width="512px" height="512px">
<g>
	<g>
		<path d="M496,108.136H273.448L200.872,36.88H0v87.248c0,0,0,0,0,0.008V459.12c0,8.8,7.2,16,16,16h480c8.8,0,16-7.2,16-16V124.136    C512,115.336,504.8,108.136,496,108.136z M32,68.88h155.792l39.992,39.256H32V68.88z M480,443.12H32V159.624v-19.496h448V443.12z" fill="#D80027"/>
	</g>
</g>
<g>
	<g>
		<polygon points="231.088,206.648 139.416,319.712 100.896,281.68 75.496,309.656 142.392,375.696 259.304,231.52   " fill="#D80027"/>
	</g>
</g>
<g>
	<g>
		<polygon points="408.296,206.648 316.624,319.712 278.096,281.68 252.696,309.656 319.6,375.696 436.504,231.52   " fill="#D80027"/>
	</g>
</g>
<g>
</g>
<g>
</g>
<g>
</g>
<g>
</g>
<g>
</g>
<g>
</g>
<g>
</g>
<g>
</g>
<g>
</g>
<g>
</g>
<g>
</g>
<g>
</g>
<g>
</g>
<g>
</g>
<g>
</g>
</svg>
