<?xml version="1.0" encoding="iso-8859-1"?>
<!-- Generator: Adobe Illustrator 16.0.0, SVG Export Plug-In . SVG Version: 6.00 Build 0)  -->
<!DOCTYPE svg PUBLIC "-//W3C//DTD SVG 1.1//EN" "http://www.w3.org/Graphics/SVG/1.1/DTD/svg11.dtd">
<svg xmlns="http://www.w3.org/2000/svg" xmlns:xlink="http://www.w3.org/1999/xlink" version="1.1" id="Capa_1" x="0px" y="0px" width="512px" height="512px" viewBox="0 0 443.189 443.189" style="enable-background:new 0 0 443.189 443.189;" xml:space="preserve">
<g>
	<path d="M294.558,88.979H9.277C4.15,88.979,0,93.132,0,98.251v84.315c0,5.122,4.15,9.273,9.277,9.273h285.28   c5.121,0,9.271-4.151,9.271-9.273V98.251C303.834,93.132,299.679,88.979,294.558,88.979z M151.917,162.382H30.15v-48.709h121.766   V162.382z M294.558,213.349H9.277c-5.127,0-9.277,4.154-9.277,9.272v84.312c0,5.132,4.15,9.281,9.277,9.281h285.28   c5.121,0,9.271-4.149,9.271-9.281v-84.302C303.834,217.507,299.679,213.349,294.558,213.349z M151.917,285.502H30.15v-48.708   h121.766V285.502z M294.558,336.537H9.277c-5.127,0-9.277,4.148-9.277,9.271v84.311c0,5.122,4.15,9.274,9.277,9.274h285.28   c5.121,0,9.271-4.152,9.271-9.274v-84.311C303.834,340.686,299.679,336.537,294.558,336.537z M151.917,412.32H30.15v-48.708   h121.766V412.32z M443.189,13.065v84.312c0,5.122-4.149,9.272-9.282,9.272h-105.85v-6.197c0-19.018-15.474-34.487-34.496-34.487   h-2.287V28.491H169.512v37.475h-30.15V13.071c0-5.122,4.15-9.275,9.272-9.275h285.273C439.04,3.79,443.189,7.943,443.189,13.065z    M443.189,137.436v84.312c0,5.13-4.149,9.278-9.282,9.278h-105.85v-6.2c0-7.47-2.419-14.373-6.467-20.033   c4.048-5.652,6.467-12.558,6.467-20.028v-56.602h105.85C439.04,128.164,443.189,132.314,443.189,137.436z M443.189,260.619v84.312   c0,5.122-4.149,9.274-9.282,9.274h-105.85v-6.198c0-7.202-2.223-13.889-6.02-19.432c3.797-5.543,6.02-12.229,6.02-19.437v-57.79   h105.85C439.04,251.349,443.189,255.497,443.189,260.619z" fill="#933EC5"/>
</g>
<g>
</g>
<g>
</g>
<g>
</g>
<g>
</g>
<g>
</g>
<g>
</g>
<g>
</g>
<g>
</g>
<g>
</g>
<g>
</g>
<g>
</g>
<g>
</g>
<g>
</g>
<g>
</g>
<g>
</g>
</svg>
