<?xml version="1.0"?>
<svg xmlns="http://www.w3.org/2000/svg" id="Layer_1" data-name="Layer 1" viewBox="0 0 512 512" width="512px" height="512px" class=""><g><title class="active-path" style="fill:#7200FF" data-old_color="#005BFF">patient history</title><path d="M281,208h21v22a9.01,9.01,0,0,0,9,9h18a9.01,9.01,0,0,0,9-9V208h21a9.01,9.01,0,0,0,9-9V181a9.01,9.01,0,0,0-9-9H338V152a9.01,9.01,0,0,0-9-9H311a9.01,9.01,0,0,0-9,9v20H281a9.01,9.01,0,0,0-9,9v18A9.01,9.01,0,0,0,281,208Zm5-22h21a9.01,9.01,0,0,0,9-9V157h8v20a9.01,9.01,0,0,0,9,9h21v8H333a9.01,9.01,0,0,0-9,9v22h-8V203a9.01,9.01,0,0,0-9-9H286Z" data-original="#000000" class="active-path" data-old_color="#005BFF" fill="#7200FF"/><path d="M355.378,493a44.35,44.35,0,0,0,35.066-17.041C398.541,465.9,403,452.608,403,438.536V131.859C403,102.5,383.417,82,355.378,82H340.334l-1.466-3.831c-.018-.049-.038-.1-.058-.145C332.486,62.532,321.272,54,307.231,54H290.022a29.553,29.553,0,0,0-58.7,0H214.11c-13.866,0-25.061,8.681-31.534,24.45L180.983,82H165.961a62.461,62.461,0,0,0-38.692,13.69C115.488,105.244,109,118.089,109,131.859V438.536c0,28,27.682,54.464,56.961,54.464ZM195.4,84.076c.032-.073.063-.146.093-.221C199.785,73.335,206.05,68,214.11,68h24.3a7,7,0,0,0,6.909-8.125,15.1,15.1,0,0,1-.2-2.455,15.55,15.55,0,0,1,31.1,0,15.335,15.335,0,0,1-.2,2.461A7,7,0,0,0,282.931,68h24.3c8.3,0,14.384,4.987,18.59,15.246l2.951,7.715.042.105.25.624.02.05L336.009,109H185.248l7.237-18.436ZM123,438.536V131.859C123,110.727,145.641,96,165.961,96h9.35l-4.7,11.979A11,11,0,0,0,180.848,123h159.6a11,11,0,0,0,10.209-15.1L345.878,96h9.5C375.8,96,389,110.075,389,131.859V438.536C389,464.818,371.677,479,355.378,479H165.961C144.279,479,123,458.957,123,438.536Z" data-original="#000000" class="active-path" data-old_color="#005BFF" fill="#7200FF"/><path d="M146,316H311a7,7,0,0,0,0-14H146a7,7,0,0,0,0,14Z" data-original="#000000" class="active-path" data-old_color="#005BFF" fill="#7200FF"/><path d="M374,430a7,7,0,0,0-7-7H146a7,7,0,0,0,0,14H367A7,7,0,0,0,374,430Z" data-original="#000000" class="active-path" data-old_color="#005BFF" fill="#7200FF"/><path d="M146,357H255a7,7,0,0,0,0-14H146a7,7,0,0,0,0,14Z" data-original="#000000" class="active-path" data-old_color="#005BFF" fill="#7200FF"/><path d="M146,275h65a7,7,0,0,0,0-14H146a7,7,0,0,0,0,14Z" data-original="#000000" class="active-path" data-old_color="#005BFF" fill="#7200FF"/><path d="M146,396H289a7,7,0,0,0,0-14H146a7,7,0,0,0,0,14Z" data-original="#000000" class="active-path" data-old_color="#005BFF" fill="#7200FF"/></g> </svg>
