<?xml version="1.0" encoding="utf-8"?>
<!-- Generator: Adobe Illustrator 16.0.0, SVG Export Plug-In . SVG Version: 6.00 Build 0)  -->
<!DOCTYPE svg PUBLIC "-//W3C//DTD SVG 1.1//EN" "http://www.w3.org/Graphics/SVG/1.1/DTD/svg11.dtd">
<svg version="1.1" id="Layer_1" xmlns="http://www.w3.org/2000/svg" xmlns:xlink="http://www.w3.org/1999/xlink" x="0px" y="0px"
	 width="1000px" height="712.247px" viewBox="0 0 1000 712.247" enable-background="new 0 0 1000 712.247" xml:space="preserve">
<g id="New_Hampshire">
	<path fill="#002857" d="M911.637,247.405c-3.026-3.094-1.179-7.97-2.104-14.027c-0.216-1.369-1.427-3.206-1.402-4.208
		c0.069-4.199,2.961-9.092,2.805-13.325c-0.057-1.324-0.592-3.045-1.401-4.208c0.155-1.924,2.492-2.352,3.507-3.506
		c1.198-1.366,1.439-2.829,2.805-4.208c-2.336-5.245-2.877-12.238-0.703-18.235c1.758,0.088,2.196,1.338,2.807-0.701
		c3.529,8.369,5.969,17.842,9.117,27.352c0.462,1.4,0.827,3.331,1.402,4.91c0.417,1.146,1.767,2.364,2.104,3.507
		c0.463,1.564-0.011,3.494,0.704,4.909c2.117,4.213,7.638,5.708,6.312,11.221c-4.134,0.307-4.979,3.903-7.014,6.312
		C923.863,244.203,918.123,246.176,911.637,247.405z"/>
</g>
<g id="Vermont">
	<path fill="#002857" d="M910.234,248.106c-4.834-0.158-7.832,1.521-11.924,2.104c-1.38-7.177-1.872-18.497-7.013-19.637
		c1.073-3.633-2.28-6.632-2.806-9.819c-0.212-1.283,0.704-3.097,0.704-4.207c0.003-0.985-0.459-3.416-0.704-4.208
		c-0.402-1.276-1.663-2.312-2.104-3.505c-0.302-0.809,0.175-1.958,0-2.806c-0.404-1.997-1.656-3.785-1.401-5.611
		c9.055-2.634,18.07-5.306,28.054-7.013c0.965,2.123-0.334,2.506,0,5.61c0.608,2.208,1.457,2.437,1.402,4.208
		c-0.108,3.514-4.415,5.152-5.61,7.715c2.683,6.14-1.385,12.509-1.403,18.234c-0.007,2.634,2.063,7.303,2.111,11.221
		C909.567,243.126,908.338,245.358,910.234,248.106z"/>
</g>
<g id="New_York">
	<path fill="#002857" d="M902.519,292.816c0.352,1.578-0.7,3.683-2.277,3.683c-2.981,2.63-3.193-6.717-3.322-4.208
		c-7.396-1.724-13.577-4.659-20.344-7.013c-1.806-1.017-1.467-4.759-2.802-6.312c-0.864-0.998-1.888-0.479-3.516-1.403
		c-0.984-0.568-1.655-2.031-2.104-2.104c-1.582-0.256-5.758,1.323-9.118,2.104c-2.869,0.666-6.478,1.52-9.117,2.104
		c-16.854,3.729-38.919,8.511-56.106,10.52c0.888-1.038-0.857-2.293-0.701-3.507c0.261-2.065,1.822-2.243,3.507-4.208
		c1.152-1.348,1.891-3.081,2.806-4.208c1.085-1.337,2.57-2.266,3.507-3.507c0.466-0.618,0.22-0.899,0.701-1.403
		c0.342-0.351,1.427-1.758,2.11-2.805c0.35-2.923-2.051-3.093-1.403-6.312c-1.285-0.82-3.186-1.024-3.509-2.806
		c-0.627-2.908,3.845-2.947,6.313-4.208c2.103-1.077,8.015-3.565,13.321-2.806c1.629,0.234,2.68,1.313,4.208,1.403
		c3.14-1.068,5.587-2.829,10.521-2.104c2.482-1.955,4.541-4.343,6.312-7.014c1.091-1.014,2.733-1.475,4.203-2.104
		c0.311-3.119-0.501-5.113-1.399-7.014c-0.183-2.516,2.108-2.569,2.106-4.91c-2.892,1.964-1.828-3.335-4.208,0
		c-1.459-3.142,4.491-6.385,6.313-9.117c-0.643-2.342,0.552-3.54,1.402-4.909c0.653-1.048,1.285-2.093,2.11-3.507
		c2.537-4.38,6.719-8.691,11.916-9.819c6.054-1.311,14.233-2.289,19.638-4.909c1.648,0.931,0.253,2.104,0.701,3.507
		c0.299,0.913,1.146,1.125,1.402,2.104c0.228,0.854-0.298,1.976,0,2.806c0.852,2.375,2.771,3.822,2.806,7.715
		c0.015,1.641-0.956,2.598-0.703,4.207c0.583,3.71,3.717,7.368,2.801,11.923c1.802,1.879,1.002-1.878,2.807,0
		c1.946,4.289,2.623,9.735,3.507,16.131c0.107,0.787,1.588,1.258,1.4,2.104c-0.75,3.501-1.267,9.448-0.7,14.728
		c0.14,1.307,1.063,2.096,1.402,3.507c0.891,3.764,0.906,8.966,2.104,13.326c1.288,4.722,1.702,4.441-1.403,7.715L902.519,292.816z"
		/>
	<path fill="#002857" d="M921.28,287.381c-0.075-0.688,2.277-1.578,2.277-1.578c2.273,0.352,2.206-1.826,5.605-1.227
		c-1.829,0.968-2.414,3.723-4.909,4.033C924.261,288.608,921.365,288.183,921.28,287.381z"/>
	<path fill="#002857" d="M921.806,289.485l-0.524,0.701c0.167,2.224-2.091,1.186-4.034,2.103c-0.355,0.169-0.403,1.243-0.703,1.404
		c-0.993,0.539-2.511,0.175-3.507,0.701c-0.853,0.45-1.388,1.707-2.105,2.104c-1.949,1.076-4.047,1.738-6.313,2.806
		c-1.943,0.913-3.563,3.305-6.318,2.104c-0.16-4.602,5.251-3.633,5.61-7.715c3.493-0.248,6.292-1.188,7.715-3.507
		c3.406,0.133,6.229-2.949,8.241-4.208c-0.176,1.228-3.604,3.758-0.352,3.156L921.806,289.485z"/>
</g>
<g id="Massachusetts">
	<path fill="#002857" d="M951.612,262.834c-0.085,1.784-1.025,2.72-2.806,2.805c0.51-2.145-1.211-2.062-0.701-4.207
		c-2.586,1.396-3.92,4.029-5.61,6.312c-2.491-0.08-2.822-2.321-2.806-4.91c-0.654,0.514-1.063,1.275-1.402,2.104
		c-2.136-1.136-2.986-3.558-4.208-5.61c-13.118,1.142-22.364,6.15-35.769,7.013c0.392-6.243,0.813-8.411,0.703-15.43
		c8.661-1.762,21.17-4.36,29.457-6.312c2.498-0.589,5.502-3.191,6.312-6.313c0.815,0.115,1.249-0.154,1.403-0.701
		c2.106,1.566,2.513,6.405,6.313,4.208c-2.583,1.859-4.173,4.711-5.61,7.715c0.143,0.568,0.703,0.7,0.703,1.403
		c1.2,2.104,2.552,0.779,4.91,0.702c0.93,1.641,3.476,1.666,2.806,4.909c3.194,0.543,3.074,4.405,6.313,4.909"/>
	<path fill="#002857" d="M951.262,262.133c2.375,0.455,6.546-1.286,8.42-3.624l-1.176-0.936l-1.868,1.402l-0.233,0.936
		c0,0-2.806,1.169-3.74,0.702c-0.936-0.468-1.053,0.818-1.053,0.818L951.262,262.133"/>
	<path fill="#002857" d="M950.911,268.444c0.133,1.531-0.574,2.231-2.104,2.104C949.557,269.896,949.026,267.961,950.911,268.444z"
		/>
</g>
<g id="Rhode_Island_1_">
	<path fill="#002857" d="M933.378,260.029c1.394,2.381,1.629,4.056,0.701,6.312c1.221,1.593,1.701,3.919,1.401,7.013
		c-1.587,0.751-3.074,1.592-4.198,2.805c-0.583-3.384-2.393-9.755-3.515-14.727C929.413,260.74,931.213,260.202,933.378,260.029z"/>
</g>
<g id="Delaware">
	<path fill="#002857" d="M880.075,357.514c-0.532-10.287-7.475-20.509-6.312-30.858c1.981,0.58,1.816-0.989,3.506-0.703
		c0.402,1.979-1.375,3.1-1.401,4.91c-0.049,3.295,2.571,6.212,4.909,7.716c0.354,2.67,0.949,4.011,2.806,6.312
		c1.735,2.151,1.86,3.699,5.611,3.507c-0.226,1.646-1.109,2.632-0.704,4.909c0.126,1.129,3.334-1.142,2.806,2.104
		C887.181,355.735,884.317,357.313,880.075,357.514z"/>
</g>
<g id="Connecticut">
	<path fill="#002857" d="M899.713,267.744c9.082-1.906,17.856-4.125,26.657-6.312c1.186,4.894,3.236,8.914,3.51,14.727
		c-4.279-0.588-5.975,5.042-9.118,1.403c-0.06,1.913,1.169,1.412,0,2.806c-3.488,0.719-6.519,0.974-9.117,2.805
		c-0.726,0.513-0.764,1.567-1.401,2.104c-0.415,0.351-1.667-0.332-2.104,0c-0.605,0.466-0.183,1.585-0.703,2.104
		c-0.462,0.464-1.628,0.247-2.105,0.702c-0.893,0.859-1.411,2.496-2.805,2.806c-0.814,0.114-1.248-0.155-1.402-0.701
		c-0.617-2.253,2.313-0.961,2.111-2.806C902.027,280.858,900.027,275.144,899.713,267.744z"/>
</g>
<g id="Pennsylvania">
	<path fill="#002857" d="M881.479,287.381c-2.028,3.12-2.234,8.051-4.914,10.52c-0.269,2.205,1.475,1.185,1.399,3.507
		c-0.021,0.925-1.528,2.223-1.399,2.805c0.43,1.994,1.304,2.901,2.803,4.208c0.503,0.43,0.262,0.94,0.704,1.404
		c0.622,0.664,1.3,0.882,2.104,1.401c1.237,0.802,2.662,3.074,4.91,3.508c-0.247,2.324-2.101,3.042-3.507,4.208
		c-1.218,1.354-1.588,3.555-2.807,4.908c-1.199-0.03-1.814,0.521-2.104,1.403c-1.402,0-2.805,0-4.207,0
		c-1.355,0.981-2.079,2.595-2.805,4.208c-26.658,5.605-53.78,10.744-80.653,16.131c-2.406-9.325-4.963-25.392-7.013-37.872
		c-0.773-4.703-2.714-10.355-2.111-12.624c0.287-1.063,0.918-1.85,2.111-2.806c0.543-0.444,1.479-0.233,2.104-0.701
		c1.327-0.995,3.835-4.514,6.313-4.909c0.224,1.646,1.107,2.632,0.703,4.909c15.988-2.411,34.558-6.165,51.897-9.818
		c1.604-0.338,2.675-1.074,4.208-1.403c2.848-0.612,6.52-0.662,9.819-1.402c3.464-0.778,6.152-2.464,8.42-2.105
		c2.014,0.32,2.936,3.211,4.909,2.105C874.296,282.875,875.249,287.765,881.479,287.381z"/>
</g>
<g id="New_Jersey">
	<path fill="#002857" d="M891.298,338.579c0-0.234,0-0.468,0-0.702c-1.453,0.418-4.606-0.866-4.91,0.702
		c-3.223-2.857-12.145-4.833-7.013-12.624c1.989-0.198,1.934-0.979,4.208-2.104c-0.591-3.162,1.641-3.502,2.104-5.609
		c1.143-0.198,1.209,0.663,2.109,0.702c-1.521-1.46,0.086-2.269,0.702-3.508c0.121-1.799-1.828-0.779-2.798-2.104
		c-1.595-2.172,0.895-1.293-1.403-2.103c-0.278-0.1-1.749-0.431-2.109-0.702c-0.663-0.503-0.182-1.423-0.701-2.104
		c-0.989-1.309-3.034-1.078-3.516-2.806c0.11-3.022,2.721-4.962,0-7.013c0.201-2.11,2.123-3.285,2.806-4.909
		c0.754-1.797-0.222-3.868,1.401-4.909c0.796,0.133,0.391,0.703,0,0.701c2.271,0.432,2.579-0.222,5.611,0.701
		c-0.143-0.044,1.948,0.593,2.104,0.701c0.147,0.107-0.156,1.355,0,1.402c0.354,0.107,1.259-0.837,2.107-0.701
		c0.663,0.108,3.436,1.84,4.915,2.105c0.678,6.291-4.313,6.913-2.807,14.026c2.214,0.343,2.473-1.264,4.908-0.7
		c1.847,2.541,0.138,6.253,0,9.117c-0.129,2.787,1.326,5.691-0.701,7.014c0.896,0.336,1.779,0.49,0.701,2.806
		c-0.155,0.335-1.601,0.959-2.103,2.104c-0.933,2.117-0.024,4.953-2.807,5.61c0.582,2.859,0.105,2.415,0,5.61
		c-0.567-0.133-0.702-0.703-1.402-0.701"/>
</g>
<g id="Maryland">
	<path fill="#002857" d="M854.127,352.606C855.78,350.35,856.961,355.072,854.127,352.606L854.127,352.606z"/>
	<path fill="#002857" d="M863.244,358.215c-0.684-0.02-0.545-0.857-0.704-1.402c-2.551,5.836,5.585,7.031,7.715,10.52
		c-1.948,0.527-8.651-0.213-9.116-3.506c-0.821,0.113-0.584,1.277-0.701,2.104c-1.759-0.58-2.219-2.457-3.507-3.506
		c-1.849-0.211-2.31,0.973-2.11,2.807c-3.701-3.477,2.553-7.861,2.11-12.625c-0.784-2.492-2.834-0.427-4.209-0.701
		c-1.492-0.299-2.027-1.66-3.506-2.105c-1.13-0.34-2.54,1.035-3.509,0c0.493-3.53-1.461-4.623-4.916-4.208
		c-0.984-2.046-2.863-2.396-3.034-5.26c-0.823-0.584-3.038-0.936-4.208-1.052c-1.169-0.117-2.805-0.701-3.272,0.232
		c-0.469,0.937-2.229,0.702-2.807,1.403c-0.584,0.701-1.753,3.156-2.805,2.923c-1.053-0.233-2.922-1.52-3.39-1.403
		c-0.469,0.117-0.704,0.351-1.169,1.403c-0.469,1.052-1.521,2.804-2.807,2.922c-1.285,0.118-1.99,0.468-2.343,1.286
		c-0.345,0.819-0.938,2.338-1.748,3.039c-0.824,0.702-2.111,1.052-2.689,2.688l-1.869-10.753l31.444-5.846
		c4.317-0.855,11.504-2.365,16.833-3.507c3.635-0.778,10.086-2.872,15.43-3.507c-0.583,1.982,0.983,1.816,0.701,3.507l0.115,0.468
		c2.456,7.948,4.141,17.252,6.896,24.782c3.229-0.764,8.686-3.514,11.223-0.703c-1.359,2.617-2.93,5.021-3.507,8.416
		c-3.155,0.359-4.333,2.682-7.716,2.807c0.365-1.037,1.035-1.768,1.4-2.807c-0.188-0.639-3.11-1.861-2.804-0.701
		c-2.085,0.305,0.722-1.703,0.702-2.104c-0.037-0.793-2.588-1.564-1.402-3.508c-1.271-0.365-0.89,1.789-1.396,2.104
		c-0.284,0.176-1.869-2.807-2.109,0.701c-1.239-0.629-2.048-1.693-3.507-2.104c-0.51-2.146,1.21-2.063,0.703-4.207
		c2.2,0.777,1.854,0.326,3.514-0.702c0.118-1.521-2.488-0.318-3.514-0.704c0.129-2.092-2.697-4.292,0-4.909
		c-0.102-1.297-2.377-0.43-2.8-1.403c-0.442-1.039,1.571-2.4,0.703-4.208c-0.321-0.665-1.488-0.853-1.402,0
		c-0.436-4.331-0.609-5.588,4.912-7.013c-2.195-0.951-2.638-1.412-1.286-3.507l-0.112-0.703c-1.094-1.155-2.73,0.24-4.207,0.703
		c-0.288,1.688,1.28,1.524,0.703,3.507c-1.188,0.259-1.324-0.547-1.403-1.402c-2.072,1.321-1.104,3.022-3.51,2.806
		c-0.06,1.914,1.168,1.412,0,2.806c-0.563-0.371-1.138-0.731-2.104-0.702c0.781,0.864,0.609,1.441-0.704,1.402
		c-0.327,2.198,1.766,1.978,2.806,2.806c-1.226,4.137,1.053,8.047,1.403,12.623"/>
</g>
<g id="West_Virginia">
	<path fill="#002857" d="M811.347,353.307c2.79-0.717,3.466-3.548,4.909-5.609c2.177,0.05,4.354-0.94,4.91-4.208
		c1.334,0.301,1.761,1.51,3.506,1.401c1.994-0.121,2.355-2.525,3.506-3.506c1.002-0.853,3.132,0.021,2.808-2.104
		c1.313,1.23,4.253,0.474,5.609,1.401c0.229,0.156-0.202,1.201,0,1.403c0.19,0.192,1.266-0.221,1.402,0
		c0.422,0.694,0.42,1.65,0.702,2.104c0.854,1.377,1.288,2.174,0.703,4.908c-3.999-0.16-6.664-4.781-9.826-3.507
		c-1.77,2.301-0.784,5.367-1.402,7.715c-0.098,0.373-1.318,1.141-1.396,1.403c-0.169,0.544,0.292,1.625,0,2.104
		c-0.734,1.203-4.399,0.344-3.514,4.209c-6.839-0.994-3.417,8.273-7.013,10.52c-3.095,0.391-3.695-4.209-6.314-2.104
		c-1.587,1.563-0.26,3.168-0.702,4.908c-0.398,1.549-2.257,3.393-2.806,4.91c-0.376,1.035,0.352,2.459,0,3.506
		c-0.888,2.646-3.55,4.17-4.2,7.717c-0.351,1.889,0.968,4.223,0,6.311c-3.879-0.139-4.454,3.027-8.419,2.807
		c-0.941,0.461-1.306,1.498-1.402,2.807c-2.633-0.271-5.306,3.063-7.714,0.701c-1.587,0.984-2.307,2.84-4.2,3.508
		c-3.329-1.111-6.657-2.229-7.015-6.314c-5.058-0.033-6.788-2.996-9.817-7.012c-1.564-2.074-3.951-4.689-4.208-5.611
		c-0.479-1.705,1.2-4.07,0-5.609c4.803,1.063,2.789-4.697,6.313-4.908c-1.543-2.605-0.582-7.813,0.703-9.82
		c2.19-0.326,1.979,1.764,2.802,2.807c3.305-2.186,0.823-6.145,2.107-9.117c0.695-1.619,4.436-1.359,2.806-4.207
		c1.105,0.061,2.673-0.337,2.804,0.703c1.713-0.842,2.755-2.564,4.201-4.208c0.99-1.125,2.955-2.707,3.509-4.208
		c0.361-0.979,0.338-2.815,0.467-3.857c0.201-1.523-0.212-4.933,0.233-6.546c2.453-8.883-0.585-12.157,0.582-13.091
		c0.943,4.208,2.749,17.362,3.631,20.688c6.467-0.546,11.705-2.322,18.228-2.805c0.914,3.763,1.369,7.982,2.111,11.922
		c0.622-0.311,1.254-0.616,1.399-1.403L811.347,353.307L811.347,353.307z"/>
</g>
<g id="Kentucky">
	<path fill="#002857" d="M644.427,438.168c2.434-6.406-3.297-12.475,2.807-14.729c3.403,0.313,6.323,4.137,9.817,2.104
		c0.63-3.434-2.313-3.295-1.401-7.012c2.433-0.375,3.732-1.877,6.312-2.105c1.374-2.492-0.909-2.551-0.7-5.609
		c0.763-1.383,5.068-2.824,3.507-4.207c1.271-0.805,3.398-0.648,4.209,0.703c2.65-0.906,0.96-1.801,3.507-2.809
		c2.677,0.361,5.256,0.822,6.312,2.809c2.035-1.006,1.994-4.088,4.207-4.91c1.776,0.795,3.978,1.166,4.91,2.805
		c1.723-1.783,1.601-5.412,3.507-7.014c2.166-2.18,1.187,2.375,4.207,1.402c0.83,1.889,3.657-0.004,4.91,0
		c0.423-1.453-0.863-4.607,0.704-4.908c-0.104-2.213,2.838-1.363,3.51-2.807c-0.528-3.801,2.42-4.125,3.507-6.313
		c0.287-1.689-1.281-1.525-0.701-3.506c1.093-1.934,3.232,0.748,3.508,0.701c2.45-0.422,2.918-3.932,7.012-3.508
		c0.156-2.963-1.074-4.529-1.396-7.014c0.761-1.467,2.253,0.08,3.509,0c1.468-0.092,2.199-1.133,3.508-0.699
		c2.993,0.988,3.603,4.607,5.608,6.311c3.909-0.4,6.691,0.322,8.416,2.105c2.238,0.602,2.169-1.104,3.515-1.402
		c2.998-0.158,2.861,2.332,5.604,0.701c2.271-0.305,2.784-2.359,4.208-3.506c1.828,2.373,4.277,4.139,7.012,5.609
		c0.013,2.184,1.668,4.568,0,6.313c4.058,4.359,6.388,10.443,11.923,13.326c1.254-0.199,1.438,0.662,0.702,0.701
		c-2.068,5.414-8.418,6.871-11.226,12.623c-1.115,2.293-1.265,2.762-3.507,4.912c-0.864,0.824-1.908,2.666-2.104,2.803
		c-0.502,0.354-2.473,0.162-3.515,0.703c-0.301,0.158-0.448,1.287-0.702,1.4c-0.383,0.174-1.034-0.193-1.401,0
		c-1.436,0.762-3.019,2.465-4.209,2.807c-1.938,0.559-6.916,0.189-10.516,0.701c-1.497,0.211-6.169,1.234-8.419,1.402
		c-2.938,0.217-5.604-0.289-8.419,0c-3.791,0.389-8.622,1.76-14.027,2.105c-2.755,0.178-5.573-0.203-8.417,0
		c-10.533,0.752-21.134,4.045-30.159,2.104c-0.561,2.432,1.046,2.695,0.702,4.908c-7.063,0.182-13,1.496-20.34,1.402"/>
</g>
<g id="Ohio">
	<path fill="#002857" d="M786.097,323.851c-1.044,0.825-1.979,1.762-2.804,2.807c3.905,2.051,1.294,8.452,0.704,15.429
		c-0.188,2.2,0.317,4.578,0,5.611c-1.315,4.249-5.396,5.819-6.313,8.419c-1.561-1.16-3.804,0.147-4.209-0.703
		c-1.172,0.226,0.493,1.853-0.7,3.507c-0.236,0.328-1.996,0.477-2.111,0.701c-0.644,1.352,0.988,4.123-1.403,4.207
		c-0.341,2.203,2.427,1.854,0.704,3.508c-1.913,0.51-1.412-1.395-2.807-1.404c-1.847,1.223-3.443,3.098-3.506,6.314
		c-0.026,1.334,1.065,2.283,0.701,3.508c-0.415,1.361-0.86,1.076-1.401,2.104c-0.395,0.758-0.134,2.184-0.702,2.805
		c-0.588,0.645-1.6-0.951-2.106-0.701c-0.1,0.047,1.265,1.467,0,1.404c-3.318-0.17-2.41-2.615-6.315-3.508
		c-0.301-1.336-1.506-1.762-1.397-3.506c-2.687,0.584-4.25,2.293-5.607,4.207c-2.518,0.414-3.396-0.813-4.91-1.402
		c-1.829,0.281-2.114,2.094-4.208,2.105c-1.806-2.148-4.104-3.529-7.716-2.105c-0.976-2.063-3.424-2.652-3.506-5.609
		c-3.771-1.375-6.92-0.596-9.821-1.404c-1.353-20.384-4.771-38.708-6.316-58.911c5.975-0.408,11.313-1.14,16.137-2.104
		c1.752-0.352,3.827-1.442,5.604-1.403c0.064,0.001-0.077,1.322,0,1.403c-0.106-0.116,2.104-0.855,2.806-0.702
		c2.312,0.501,4.785,2.326,7.014,2.807c-0.25,0.921-1.234,1.104-1.402,2.103c2.185-0.25,5.004-0.106,3.507-0.701
		c1.961-1.714,3.428,0.844,5.608,0.701c3.162-0.206,5.275-2.92,7.717-4.207c3.874,1.632,6.182-0.943,8.416-3.506
		c1.075-1.235,1.646-2.468,2.807-3.507c1.895-1.697,4.539-2.439,6.312-3.507c2.211-1.332,3.665-3.347,6.313-3.506
		C782.218,305.288,783.997,314.73,786.097,323.851z"/>
</g>
<g id="Michigan">
	<path fill="#002857" d="M661.844,235.365l2.348-1.87c-0.033,0.749-1.87,3.507-0.234,3.507c-0.325,0.826-2.337,1.51-2.806,2.104
		c-0.467,1.87-2.108,4.122-2.688,4.091c-0.552-0.524-0.684-1.242-0.521-1.908c0.161-0.666,0.503-2.332,1.105-2.651L661.844,235.365z
		"/>
	<path fill="#002857" d="M740.695,289.894c0.915,0.737,1.948-3.743,2.15-4.974c-0.359-0.829-1.361,0-1.936,0.498
		C740.335,285.916,739.972,289.312,740.695,289.894z"/>
	<path fill="#002857" d="M743.9,287.499c0.889-1.334,2.531,0.973,3.623,1.988c-0.444,2.593-7.721,5.358-6.194,2.688
		C742.265,290.538,742.964,288.901,743.9,287.499z"/>
	<path fill="#002857" d="M636.596,193.051l1.521-1.753c1.547-1.727,3.47-3.076,4.207-5.61v-1.402
		c-4.329,1.046-7.776,2.983-8.419,7.715c2.206,0.804,2.223-0.175,2.805-1.403c0,0.234,0,0.468,0,0.702L636.596,193.051z"/>
	<path fill="#002857" d="M669.675,219.352c-0.133-0.568-0.702-0.7-0.7-1.404c-4.009-0.734-3.074,3.473-6.313,3.507
		c0-1.169,0-2.338,0-3.507c-2.21,1.109-2.13,4.187-3.507,6.313c-1.874,2.893-3.722,8.513-5.61,12.623
		c-2.398-0.374-1.074-3.378-0.703-4.909c0.503-1.137-3.312-1.137-2.801,0c-0.744-4.283,1.701-10.279-5.611-9.819
		c0.227-1.626-0.111-2.693-0.702-3.507c-2.022,0.985-4.24-1.259-6.313-1.404c-1.794-0.125-4.149,0.961-7.014,0
		c-0.365-0.122-1.14-1.322-1.402-1.402c-4.646-1.405-12.065-2.04-18.234-3.507c-0.254-2.551-1.658-3.955-4.202-4.208
		c0.543-2.025,3.395-1.75,4.911-2.806c1.689-1.116,2.323-3.287,4.202-4.208c6.376,1.001,7.419-3.332,11.921-4.208
		c0.987-1.818,2.372-3.238,3.508-4.909c4.318,0.364,4.061,5.29,4.917,9.117c2.217,0.346,0.26-3.48,2.796-2.806
		c0.134,0.597-0.269,0.662-0.7,0.701c2.109,0.835,2.752-1.926,4.909-2.104c4.889-0.403,8.579,4.798,10.521,8.416
		c5.401-0.559,7.389-0.468,11.921,0.702c2.231,0.421,2.03-2.067,2.799-2.806c0.516-0.49,1.901-0.623,2.807-1.402
		c1.667-1.43,1.18-1.852,4.908-2.806c1.973-0.503,4.019,0.097,7.014-0.701c2.688-0.717,4.752-3.448,7.716-2.806
		c-0.222,2.555,0.103,4.564,0.7,6.313c3.484,0.856,6.671-1.856,7.715,0.703c1.426-0.208,1.868-1.404,2.806-2.104
		c2.063,0.51,2.953,2.187,2.804,4.909c1.53,2.212,4.803,2.679,5.606,5.61c-3.825-0.151-8.432,0.483-11.224-0.702
		c-1.79,0.079-1.392,2.349-1.402,4.208c-2.057-0.049-2.603-1.604-3.507-2.806c-3.316-0.192-6.471-1.878-9.117-0.701
		c-1.732,0.605-2.074,2.601-3.508,3.507c-3.586,0.41-6.457-0.241-8.419,1.402c-1.326,1.113-0.807,2.98-2.802,4.208"/>
	<path fill="#002857" d="M685.806,236.184c0,1.636,0,3.272,0,4.909c0.345,2.07,0.926-0.938,2.104-0.702
		c0.003,0.001,0.167,1.111,0.702,0.702c1.012-0.771,1.917-2.607,2.109-4.208c0.183-1.61-1.271-4.015-0.702-5.61
		c0.96-2.69,2.339-4.148,5.607-4.208c0.958-3.062-2.712-1.492-2.104-4.208c0.301-2.965,2.843-3.699,4.199-5.61
		c1.782-0.574,2.176,1.624,4.209,2.104c2.688,0.636,6.43-0.579,7.013,2.806c6.25,0.53,11.112,2.448,14.029,6.312
		c0.107,1.983-2.11,1.633-2.108,3.507c0.546,2.026,2.562,2.582,3.507,4.208c0.188,4.381,2.37,10.533-2.104,12.624
		c0.543,2.643-0.854,3.353-0.702,5.611c-1.431,0.671-2.778,1.433-4.206,2.104c-0.67,5.791,0.181,8.405,4.908,9.117
		c1.651-3.025,5.019-4.333,4.91-9.117c3.27-0.474,3.813-3.67,7.714-3.507c6.182,4.807,5.143,16.834,10.521,22.443
		c-1.384,1.892-0.421,6.128-0.704,9.117c-2.27,0.866-0.541-2.27-2.803-1.403c-2.16,1.345-3.268,3.75-2.805,7.715
		c-1.398,0.707-2.456,1.751-3.51,2.805c1.201,6.813-3.258,7.965-3.515,13.326c-6.989,0.486-13.87,3.191-21.037,3.507
		c-1.995,0.087-4.239-0.724-6.313-0.701c-6.052,0.062-13.214,2.045-19.636,2.804c-2.446,0.29-5.219-0.156-7.716,0.701
		c-2.307,0.512-1.069-1.395,0-1.402c1.133-1.963,1.55-3.651,2.807-7.013c1.28-3.433,3.247-9.183,2.804-15.429
		c-0.306-4.301-2.703-7.68-2.11-11.222c-2.675-0.931-2.793-2.713-4.202-5.61c-0.341-0.703-1.229-1.145-1.4-2.105
		c-0.305-1.726,1.265-2.296,1.4-4.208c0.164-2.24-0.841-3.979-2.109-5.61c1.063-3.408,4.097-5.959,3.512-11.922
		c-0.109-1.135-0.796-2.208-0.703-2.805c0.38-2.323,3.131-3.304,2.104-5.611c2.381-1.129,4.51-2.507,5.61-4.909"/>
	<path fill="#002857" d="M619.53,180.86c0,1.21,6.662-1.896,7.716-2.167c1.06-0.271,4.206-3.521,4.206-4.604s-3.507,2.708-4.56,3.52
		C625.841,178.422,619.53,179.506,619.53,180.86z"/>
</g>
<g id="Indiana">
	<path fill="#002857" d="M679.492,403.102c-0.92,0.123-1.105,1.398-2.11,1.402c-1.467,0.006-1.783-1.221-2.805-1.402
		c-1.177-0.211-4.722,0.592-4.909,0.701c-0.166,0.104,0.163,2.08,0,2.105c-0.893,0.135-0.289-1.104-0.701-1.402
		c-1.068-0.785-4.701,2.035-6.313,0.701c-0.396-3.199,1.242-4.367,0.702-7.717c1.43-0.391,1.378-2.109,2.805-0.701
		c-1.125-3.217,3.041-6.613,3.507-10.521c0.567,0.135,0.703,0.703,1.403,0.701c-0.859-1.164-0.806-4.275-1.403-6.311
		c-0.076-0.262-1.624-1.928-1.402-2.104c1.33-1.064-1.068,0.156-1.4-1.404c1.025-1.543-0.082-5.227,2.111-5.609
		c-2.476-17.399-3.339-36.406-5.611-54.003c-1.988,0.539,3.323,0.489,3.512,0.701c-0.021-0.022-0.799,1.398-0.703,1.402
		c-0.238-0.008,2.642-1.125,4.208-2.104c1.227-0.772,2.003-2.009,3.507-2.806c0.831-0.441,1.313,0.723,1.402,0.7
		c0.783-0.2,0.354-0.801,0-0.7c4.905-1.384,11.451-1.252,17.532-2.104c3.438-0.482,10.185-1.469,15.431-2.104
		c0.732,0.906,0.033,2.204,0,2.104c0.303,0.899,1.213,1.116,1.403,2.104c0.258,1.34-0.121,2.846,0,4.208
		c0.499,5.646,2.07,12.231,2.804,18.936c0.598,5.453,0.776,11.257,1.403,16.833c0.544,4.913,1.952,9.924,2.104,14.026
		c0.081,2.305-1.024,3.342,0,5.611c-3.446-2.439,2.328,3.557-1.402,1.402c0.634,2.359,1.567,0.082,2.806,1.402
		c0.301,1.129-2.616,2.354-2.806,0.701c-0.965-1.934,0.061,1.828-0.701,2.105c-0.517,0.186-1.698-0.441-1.403-0.701
		c-0.744,0.666,0.733,1.861-0.704,2.105c-0.822,0.141-1-1.281-1.401-1.404c-0.908-0.281-2.835,2.371-2.796,0
		c-2.495,1.395-0.21,3.211-0.704,6.313c-3.874,0.16-2.063,7.945-6.313,5.611c-0.574,2.23-0.447,5.164-1.402,7.012
		c-2.038,1.275-3.283-1.398-2.806-1.402c-0.709,0.006-0.724,1.955-2.104,1.402c-0.006-2.098-1.266-2.947-2.806-3.506
		c-2.391-0.84-0.487,2.607,0,1.402c-0.341,0.854-1.61,0.754-2.104,1.402c-0.757,0.998-0.471,3.02-0.703,3.508
		c-0.148,0.32-2.28,0.266-0.702,0.703c-0.557,1.613-3.297-0.363-3.511-1.404c-1.788-0.756-2.457,3.02-3.511,0.703
		c-1.101,0.246,0.616,1.232-0.702,1.4"/>
</g>
<g id="Illinois">
	<path fill="#002857" d="M661.26,415.725c-3.422,0.086-5.304,1.711-7.014,3.508c-0.08,2.602,3.257,4.107,1.402,6.311
		c-4.701-2.506-11.773-4.518-13.321,2.105c-1.834,0.078-4.243-2.451-4.914-4.207c-0.362-0.953,0.743-2.09,0.703-3.506
		c-0.068-2.633-2.534-4.168-1.402-6.313c-2.773-0.781-3.828-4.033-6.312-5.609c-0.393-0.248-1.81,0.338-2.104,0
		c-0.185-0.209,0.222-1.256,0-1.402c-0.703-0.461-2.457-0.156-3.516-0.703c-0.301-0.158-0.447-1.287-0.701-1.402
		c-4.285-1.93-5.293-5.338-2.109-10.52c0.776-1.256,0.505-3.973,1.399-7.014c-1.224-1.232-3.569-2.861-5.605-2.807
		c-1.75,0.049-2.513,1.59-4.207,1.402c-1.007-2.357-0.678-5.324-2.105-7.717c-1.473-2.467-3.563-2.492-5.609-4.205
		c-0.571-0.48-0.85-1.566-1.401-2.105c-0.721-0.703-4.263-3.148-4.909-4.207c-0.715-1.166-0.906-4.002-1.402-5.611
		c-0.586-1.906-1.438-3.133-1.401-4.908c0.071-3.7,3.003-2.677,1.401-7.715c0.74-2.065,3.173-2.438,4.909-3.507
		c-0.655-4.163,1.915-5.098,2.805-7.715c-0.37-4.411-4.4-4.417-2.805-9.118c4.163-0.98,7.656-2.629,11.229-4.208
		c0.716-5.176,4.359-7.276,3.507-11.923c-0.438-2.365-1.65-3.064-3.507-4.208c-1.396-0.858-1.301-2.581-2.806-4.208
		c-1.205-1.294-2.961,0.003-2.11-2.105c16.369-0.001,30.782-1.945,46.287-2.805c-0.713,3.608,0.653,5.283,2.11,7.715
		c0.254,0.425,1.305,1.15,1.396,1.402c0.233,0.587-0.28,1.541,0,2.104c1.085,2.175,2.925,4.543,3.515,7.014
		c0.74,3.142,0.334,7.379,0.701,11.221c1.008,10.542,2.627,22.626,3.515,32.263c0.256,2.773,0.808,5.967,0.702,8.416
		c-0.078,1.801-1.037,1.996-1.403,3.506c-0.2,0.838,0.646,0.416,0.704,0.703c0.085,0.424-0.819,1.691-0.704,2.805
		c0.25,2.453,2.892,4.842,2.808,8.416c-0.034,1.373-0.669,1.658-1.403,3.506c-1.021,2.584-0.998,3.002-2.104,4.91
		c-0.643,1.105-1.789,3.76-3.516,4.207c1.142,2.729-0.434,4.984-0.702,7.715c-0.089,0.916,0.805,2.279,0.702,3.508
		C661.81,410.491,659.538,412.571,661.26,415.725z"/>
</g>
<g id="Wisconsin">
	<path fill="#002857" d="M648.636,224.261c1.023,3.113-0.007,4.116,0,7.715c0.217,0.952,1.748,0.583,2.807,0.701
		c-0.961,4,1.83,4.24,1.394,7.715c-0.622,0.545-1.584,0.754-2.797,0.702c0.137,4.36-3.949,6.595-2.111,10.52
		c1.734,0.719,2.059-0.733,2.807-1.404c1.988-1.783,2.708-5.031,5.604-7.013c4.528,1.633,0.383,5.193,0,8.417
		c-0.381,3.231-0.589,5.131,0.704,7.715c-1.95,0.388-1.964,2.712-2.806,4.208c-0.794,2.232,0.768,4.449,0.704,6.312
		c-0.093,2.491-1.839,5.336-2.111,8.417c-0.164,1.906,0.496,4.982,0.704,6.312c0.113,0.744-0.704,1.423-0.704,1.402
		c0.183,0.828,1.006,1.998,1.402,2.806c1.142,2.312,1.811,4.703,1.402,9.818c-15.957,0.407-30.043,2.684-46.289,2.806
		c-2.264,0.627-0.984-2.289-2.104-2.806c-2.514-0.059-4.054-1.091-6.313-1.402c-0.089-3.921-4.111-8.867-0.704-11.923
		c-0.248-1.939-2.137-2.011-2.801-3.506c-1.172-2.62-0.341-6.582-1.399-9.117c-0.868-2.072-2.056-3.907-3.512-4.909
		c-0.814-0.562-2.993-0.423-4.204-1.403c-2.173-1.764-3.255-5.137-5.607-7.013c-0.415-0.331-2.382-0.654-3.506-1.403
		c-0.765-0.506-1.584-1.849-2.111-2.105c-1.267-0.615-3.089-0.022-4.199-0.701c-1.474-0.895-1.235-3.179-3.514-2.804
		c1.719-4.879-1.248-11.413,2.11-15.43c-0.816-2.224-1.95-4.128-4.209-4.909c-1.023-1.564,0.724-1.314,1.402-2.806
		c0.391-0.855,0.24-2.94,0.703-3.507c0.262-0.321,1.747-0.477,2.107-0.703c1.164-0.724,3.113-2.606,4.908-3.507
		c0.488-5.397-0.699-9.118-0.699-14.026c1.528,0.127,2.229-0.574,2.103-2.105c6.06,4.358,14.362-4.013,20.34-5.61
		c1.348,2.031-1.544,4.678-1.401,7.715c6.488-1.434,12.372,1.529,14.729,6.312c4.16,0.517,7.172,0.697,11.222,1.402
		c0.935,0.163,2.753,0.473,3.508,0.701c1.931,0.582,3.641,2.391,5.61,2.806c3.108,0.654,6.831-0.255,10.52,0.701
		c0.299,1.338,1.998,1.269,1.401,3.507C645.9,222.787,647.076,223.716,648.636,224.261z"/>
</g>
<g id="Iowa">
	<path fill="#002857" d="M507.501,298.219c1.45-0.902,1.919-4.875,1.919-7.447s-2.111-1.637-1.402-2.806
		c0.7-1.169-1.168-3.975-0.233-4.441c0.935-0.467,0.935-0.467,0.935-0.467s79.251-1.169,87.2-3.039c0,0-0.233,2.806,1.521,3.506
		c3.212-0.346,0.073,3.054,0,4.909c-0.127,3.217,2.27,5.828,2.804,9.118c2.391,0.177,3.363,1.772,6.313,1.402
		c0.902,1.653-0.102,1.305,0.7,3.507c0.425,1.064,3.545,1.725,4.208,3.507c0.112,0.301-1.038,1.045-0.703,1.404
		c0.392,0.415,1.651,0.354,2.11,0.701c0.462,0.359,0.882,0.979,1.404,1.401c3.11,2.532,3.588,4.426,0.7,9.118
		c-1.388,0.945,0.222,4.896-2.104,4.91c-1.236,2.133-2.171-1.915-2.805,0c1.73,2.695-4.944,2.982-7.716,3.506
		c0.405,1.874-2.073,4.382,0,5.61c0.653,1.684,2.819,1.856,2.104,4.91c0.745,2.614-2.63,1.109-2.104,3.506
		c0.503,2.143-0.717,2.556-0.703,4.208c-1.258-0.089-1.472,0.857-2.337,1.168c0,0-2.454,1.87-2.222,4.44
		c0.231,2.548-4.363-4.448-6.663-4.909c-0.53-0.107-6.096,1.23-7.715,1.401c-17.828,1.892-41.72,2.019-60.313,2.104
		c0.646-1.438-1.771-2.051-2.104-3.506c-0.205-0.897,0.783-3.031,0.702-4.208c-0.134-1.814-1.064-4.452-1.396-7.014
		c-0.067-0.521,0.742-0.729,0.702-1.401c0.001,0.021-0.637-0.956-0.702-1.404c-0.388-2.773,0.051-2.115-1.4-3.506
		c-1.079-1.033,0.221-1.159-0.704-2.104c0.372,0.375-1.701,0.521-1.402-0.701c0.668-8.849-5.218-11.145-4.91-19.637
		c-1.779-1.277-3.961-4.337-1.4-4.208c-1.249-0.611-2.745,0.175-2.804-2.104c-0.026-1.258,0.542-1.436,0.701-0.701"/>
</g>
<g id="Minnesota">
	<path fill="#002857" d="M578.502,202.519c-0.842-0.921-0.273-1.103,0-2.104c-2.811,0.903,0.184,1.451,0,3.507
		c-1.987,0.126-0.875,3.333-3.516,2.806c-0.454,5.277,0.714,11.375,0,14.728c-2.393,1.585-5.271,1.865-7.013,4.208
		c-0.362,0.488-0.062,2.365-0.704,3.507c-0.337,0.602-1.829,0.675-1.401,2.105c0.262,2.552,3.035,2.58,4.207,4.208
		c0.367,2.039-1.104,2.836-1.402,4.909c-0.422,2.974,0.843,6.017,0.704,8.416c-0.064,1.088-1.596,1.565-1.402,2.104
		c0.325,0.911,1.174,2.484,0,2.104c0.243,1.187,0.979-0.47,2.104,0c0.183,0.075-0.151,1.25,0,1.402c0.222,0.215,1.227-0.235,1.404,0
		c0.388,0.502,0.169,2.201,0,2.104c0.185,0.106,1.005-0.702,1.401-0.702c0.779,0,0.408,0.764,0,0.702
		c1.702,0.259,1.48-0.134,3.506,0c0.986,2.447-0.474,1.079,1.403,2.104c0.852,0.464,3.163,1.856,4.909,2.104
		c0.991,2.516,3.034,3.979,4.208,6.312c1.414,0.88,3.911,0.741,4.909,1.402c3.357,2.229,3.052,6.722,4.208,10.521
		c-27.629,2.067-56.443,2.938-86.265,2.806c-2.026-10.983,3.316-35.523-1.402-42.781c-0.106-0.178-1.368-0.58-1.396-0.702
		c-0.096-0.306,1.024-1.04,0.702-1.402c0.014,0.016-2.042,1.109-2.806,0.701c-0.541-0.289,0.013-3.902-2.104-3.506
		c0.613-1.033,1.356-0.882,2.807-2.805c0.206-0.275,1.346-1.262,1.401-1.403c0.165-0.411-0.302-1.804,0-2.105
		c-0.005,0.005,1.869,0.924,2.104,0c0.167-0.657-1.175,0.185-1.402-0.701c-0.652-2.539,0.13-6.253-0.702-9.819
		c-0.514-2.204-2.451-3.28-2.805-7.013c-0.303-3.121-0.512-6.343-0.704-9.118c-0.067-1.063,0.704-2.797,0.704-2.806
		c-0.131-1.415-1.228-3.007-1.403-4.208c-0.538-3.635-0.172-7.082,0-9.819c-0.704-0.965-1.157,0.299-2.104-1.403
		c-0.434-4.909-2.772-9.501-2.11-16.832c0.268-2.929,0.241-6.009-1.403-9.118c8.729-1.971,25.057,0.516,31.568-1.403
		c1.341-1.017-0.061-4.33,0-7.715c1.169,0,2.338,0,3.507,0c0.743-0.656,0.042,3.116,0,2.806c0.113,0.835,0.808,0.33,0.701,0
		c0.664,2.053,1.669,4.207,2.11,6.312c0.182,0.905,0.443,4.27,0.701,3.507c-0.938,2.782-1.784-0.851-3.507,0.702
		c0.564,0.576,1.246,0.573,2.104,0.701c-0.136-0.021,0.33,1.172,0.703,0.701c1.548-1.939,2.147,0.232,4.209,0.702
		c0.365,0.084,1.265-0.76,2.104-0.702c-0.19-0.013,5.438,1.067,6.313,1.403c0.284,0.11,1.195-0.206,1.401,0
		c0.751,0.75-0.047,1.945,1.403,2.104c1.047,0.115,4.479-0.098,4.199,0c2.1-0.733,1.226-2.555,3.516-2.805
		c1.805-0.197,4.479,0.03,6.312,0.701c0.438,0.161,2.709,1.323,2.806,1.403c0.788,0.659-0.277,3.756,2.104,2.104
		c0.271,2.535,2.263,3.349,3.508,4.91c2.275-0.061,0.502-4.181,3.513-3.506c1.243,0.206,0.887,2.065,2.105,2.806
		c1.026,0.621,4.502-0.409,3.507,2.805c2.521,1.3,7.059-0.067,8.42,0.701c-0.103-1.341,2.352-2.866,4.202-4.207
		c2.632-0.529,1.527,2.678,3.512,2.805c3.146-0.781,6.008-1.098,9.115-0.702c1.531,0.194,3.711,3.117,6.313,1.403
		c-0.319,1.871-2.729,3.5-4.208,2.104c-1.584,0.393,0.853,1.094-0.703,2.104c-3.696,1.211-8.031,1.786-9.823,4.909
		c-0.904,0.535-1.501-1.103-2.104-0.702c-0.064,0.044,0.781,1.098,0.701,1.403c-0.021,0.085-2.302,1.566-2.807,2.104
		c-0.992,1.067-1.593,3.045-3.506,2.806c0.728,2.639-1.668,2.752-2.807,4.208c-0.225,0.299-0.412,1.873-0.701,2.104
		c-0.833,0.665-1.836-0.265-2.111,0c-0.181,0.188,0.913,0.979,0.704,1.403c-0.062,0.117-2.796,1.416-3.507,2.104
		C581.754,199.935,580.984,202.308,578.502,202.519z"/>
</g>
<g id="Missouri">
	<path fill="#002857" d="M636.011,447.987c1.146,6.412-8.941,4.928-11.922,4.908c0.199-3.773,4.206-3.74,4.909-7.01
		c-0.975-1.072-1.177-3.598-2.104-4.209c-1.92-1.266-18.788,1.076-25.254,1.4c-18.155,0.92-42.159,1.602-57.512,2.104
		c-0.257-20.541-0.449-41.154-1.399-61.008c-1.06-1.281-3.029-1.648-4.201-2.805c0.235-4.213-4.054-3.898-4.209-7.715
		c1.064-1.273,1.762-2.916,3.507-3.508c0.679-5.043-3.197-3.686-5.605-4.207c0.196-1.752-1.979-1.127-2.806-2.104
		c-0.993-1.176-1.269-3.494-2.104-4.91c-1.631-2.767-4.928-4.997-4.915-8.417c13.256,0.021,29.108,0.205,43.481-0.701
		c2.834-0.182,8.019-0.403,12.633-0.703c4.462-0.287,9.021-2.073,11.915-1.403c2.873,0.665,4.104,3.872,6.313,4.909
		c-1.468,4.933-0.246,10.878,2.109,14.728c0.796,1.311,2.187,2.229,3.506,3.506c0.515,0.496,1.667,0.865,2.104,1.404
		c0.472,0.586,0.141,1.637,0.703,2.104c0.661,0.551,2.808,0.885,3.508,1.402c1.116,0.824,0.728,2.004,2.107,2.104
		c0.979,3,0.825,7.117,2.802,9.117c2.525,0.424,2.069-2.141,4.207-2.104c1.515,0.824,3.222,1.455,4.909,2.104
		c-0.422,6.176-5.854,11.373-2.104,16.131c1.122,1.426,2.045,2.438,3.506,3.508c0.926,0.676,3.539,0.613,3.507,2.805
		c2.516-0.85,4.162,1.508,5.611,2.807c0.438,0.395,1.787,0.943,2.104,1.402c0.43,0.623,0.183,2.23,0.703,3.506
		c0.342,0.834,2.456,1.98,1.401,4.209c-0.021,0.031-1.364,0.846-1.401,0.701c0.712,2.723,3.345,3.912,3.506,6.313
		c1.787,1.256,3.421-0.777,4.909,1.402c-0.872,0.752,0.181,1.732,0,2.807c-0.163,1.02-1.023,1.412-1.401,2.805
		c-0.195,0.742,1.283,1.264,0,2.809c0.262-0.305-1.731-0.213-2.104,0c-1.467,0.818-2.206,3.674-2.805,0
		c-1.781,1.621-1.008,3.123-0.702,5.605c-2.443,0.35-0.912,1.205-1.401,2.105C635.661,446.524,634.815,447.747,636.011,447.987"/>
</g>
<g id="Arkansas">
	<path fill="#002857" d="M627.596,465.52c-0.371,2.941,1.227,3.92,1.402,6.313c-0.538,2.268-1.94,3.67-4.209,4.207
		c0.624,1.242,2.23,2.049,0.704,3.508c-1.396,1.168-0.894-0.063-2.807,0c0.196,2.047-0.168,2.412-1.402,1.402
		c-0.613,3.303-0.577,6.9,0,8.416c-0.757,2.281-4.198,1.875-4.199,4.91c-1.394,1.168-0.899-0.064-2.805,0
		c0.373,1.965,1.023,3.645,1.401,5.609c-2.48-0.377-3.076,1.135-4.208,2.105c0.304,1.367,2.005-1.146,1.402,2.104
		c-0.784,1.322-0.984,3.223-2.805,3.504c-0.447,1.531,1.989,2.232-0.703,2.113c-0.691,1.227,1.387,1.781,1.398,2.105
		c0.021,0.365-1.341,1.604-1.398,1.402c0.905,2.861,2.439,1.51,2.801,3.506c0.142,0.789,0.703,2.07,0.703,2.113
		c0.135,1.604-1.204,0.943-1.402,2.105c-0.088,0.516,1.233,1.67,0.703,2.805c-9.547-0.4-19.061,1.635-29.46,1.404
		c-1.432-0.033-3.435-0.77-4.909-0.705c-1.46,0.063-2.685,1.188-4.2,1.402c-5.414,0.77-11.029-0.752-16.135,0
		c0-3.977,0-7.949,0-11.924c-0.814,0.113-1.248-0.15-1.402-0.703c-1.25-0.797-2.529,0.004-3.508,0c-0.061,0,0.079-1.322,0-1.4
		c-0.809-0.811-0.94,2.156-2.806,1.4c-2.366-14.645-0.04-31.285-1.402-46.287c-0.679-7.484-3.509-14.34-3.508-21.037
		c23.001-0.146,47.699-1.266,70.834-2.807c4.318-0.287,10.86-2.994,11.917,2.807c0.053,2.104-2.063,3.557-3.507,2.104
		c1.892,1.725-2.595,3.885-0.704,5.609c3.791,2.623,6.17-0.986,11.921,0c0.802,1.41-1.258,1.039-1.401,1.402
		c-0.246,0.613,0.58,1.607,0.702,1.404c-0.99,1.615-1.757,1.498-3.513,2.801c1.105,3.217-0.252,3.275-2.104,4.914L627.596,465.52z"
		/>
</g>
<g id="North_Dakota">
	<path fill="#002857" d="M496.445,156.933c0.341,1.921,0.489,3.309,0.701,4.909c0.303,2.273-0.164,4.137,0,8.416
		c0.023,0.625,0.868,1.071,0.703,2.104c-0.285,1.749,0.42,5.947,1.402,9.117c0.779,2.513,2.376,4.529,2.798,7.014
		c0.227,1.308-0.701,2.526-0.701,2.804c0.005,1.123,1.248,5.179,1.403,7.715c0.091,1.492-0.744,1.856-0.704,2.806
		c0.021,0.402,0.321,5.393,0.704,7.715c0.188,1.178,0.237,2.94,0.701,4.208c0.306,0.835,1.856,1.927,2.11,2.806
		c0.785,2.831,0.302,5.633,1.394,8.417c-40.135,1.802-81.308-1.45-119.927-3.507c2.186-22.833,2.407-47.622,5.61-69.432
		C425.514,155.392,462.529,154.614,496.445,156.933z"/>
</g>
<g id="South_Dakota">
	<path fill="#002857" d="M507.083,304.096c-3.74-4.441-9.484-5.245-12.036-7.597c-2.083,0.891-5.059,0.241-7.714,0.701
		c-1.99,0.343-2.912,0.568-4.208,1.402c-1.188-0.631-3.313-1.111-4.909-2.104c-1.395-0.866-2.381-2.531-3.507-2.806
		c-2.967-0.725-6.754,0.137-9.827,0c-25.899-1.152-58.209-1.975-82.758-4.208c0.482-23.598,3.557-44.603,4.909-67.329
		c38.13,3.015,77.873,4.417,119.227,4.208c0.381,4.357-3.706,4.241-4.208,7.715c1.155,1.183,1.524,3.152,2.808,4.208
		c0.903,1.206,3.338,0.869,3.505,2.806c0.432,12.894-0.886,27.537,0.704,39.274c0.297,3.478-2.103,0.396-2.807,2.105
		c-0.405,1.616,1.403,2.077,1.403,3.505c0,1.234-0.905,1.449,0,3.507c0.47,1.07,0.803,4.631,0,7.013
		c-0.372,1.105-2.369,3.269-0.817,4.792L507.083,304.096z"/>
</g>
<g id="Nebraska">
	<path fill="#002857" d="M528.005,363.125c-38.271,2.035-78.215-0.334-115.72-1.402c-0.536-8.485,1.085-14.814,0.703-23.144
		c-10.778-1.612-23.646-1.135-34.365-2.806c1.41-14.955,1.612-31.118,3.507-45.587c20.623,2.657,48.188,2.355,70.835,4.208
		c6.571,0.538,14.049-1.123,19.631,0c2.914,0.583,5.393,2.891,8.419,4.208c0.64,0.279,1.245,0.641,1.404,1.403
		c2.05,0.644,2.105-1.729,3.506-2.105c1.838-0.491,6.282,0.961,8.416-0.701c1.909,0.232,1.079,1.941,2.807,2.806
		c1.444,0.722,3.718,0,4.908,0.701c1.308,0.764,2.409,2.667,3.517,3.507c1.39,1.07,2.391,1.925,4.199,2.104
		c-1.424,1.667,1.346,3.778,1.401,4.909c0.078,1.315-0.643,2.774,1.403,4.909c0.588,0.614,0.744,1.83,1.401,3.507
		c0.727,1.852,2.021,3.455,1.402,7.716c0.047,2.058,2.144,2.065,2.806,3.506c0.663,1.014-0.141,2.825,0,3.507
		c0.342,1.681,1.23,1.569,1.402,2.806c0.206,1.531-0.744,1.821-0.703,2.806c0.006,0.157,0.673,1.264,0.703,2.104
		c0.037,1.105,0.096,0.902,0,2.104c-0.271,3.454,1.298,6.929,2.798,9.818c0.183,0.343,0.36,1.536,0.703,2.104
		C523.985,357.594,527.823,359.817,528.005,363.125z"/>
</g>
<g id="Kansas">
	<path fill="#002857" d="M535.018,370.139c-0.352,0.592-1.015,2.16-1.4,3.506c-0.365,1.24,0.307,3.293-1.402,3.506
		c0.609,2.072,1.05-1.627,2.805-0.701c-0.136,1.531,0.574,2.23,2.104,2.105c-0.771,4.742,3.817,4.131,4.909,7.012
		c0.083,16.049,1.157,31.105,0.704,47.691c-44.604,1.986-90.222-0.264-133.964-1.402c0.985-23.328,1.869-46.76,3.515-69.432
		c22.524,2.242,47.674,0.854,71.536,2.807c7.415,0.605,15.978,0.313,23.144,0c8.268-0.365,15.936-1.893,21.037-0.701
		c2.615,0.609,2.347,0.732,4.209,2.805c2.027,2.025,3.193-2.369,3.506,0.701c1.192-0.258,1.324,0.547,1.403,1.402
		C533.568,368.442,535.536,369.124,535.018,370.139z"/>
</g>
<g id="Oklahoma">
	<path fill="#002857" d="M534.317,504.795c-2.253-0.617-0.962,2.313-2.807,2.105c-2.206,0.334-2.741-1-4.2-1.404
		c-3.153,0.068-4.821,3.588-7.013,0.701c-2.349,1.393-4.763,2.715-7.013,4.209c-2.212-0.824-3.896-2.184-5.61-3.506
		c-1.653-1.719-1.304,1.047-3.505,0.697c-0.225-1.645-2.172-1.566-2.807-2.791c-1.301,1.74-4.06,2.021-3.507,5.605
		c-2.199-0.482-0.914-1.867-0.703-3.504c-2.017-0.146-3.558,0.176-4.202,1.398c-1.668-1.145-2.654-2.953-4.911-3.508
		c-2.271-1.914-1.99,3.195-5.607,2.107c1.187-4.232-4.265-1.814-2.806-6.313c-2.92-0.117-5.85-0.244-7.012,1.402
		c-4.884-1.549-9.642-3.316-14.029-3.516c0.984-4.021-2.576-3.504-2.803-6.314c-1.427,3.121-2.337,1.404-4.207,1.404
		c-0.445,0-0.862,0.674-0.703,0.705c-2.995-0.49-4.181-4.322-7.014-4.91c0.16-14.568,0.784-28.676,1.402-42.783
		c-4.274-4.012-11.204-1.57-17.533-2.104c-10.672-0.902-26.968-2.131-38.398-2.635c0.703-4.561,0.703-6.836,1.227-9.992
		c49.168,2.723,100.609,3.189,152.89,2.807c-1.186,13.318,3.322,24.289,4.208,36.471c0.944,12.969-0.699,25.854,0,40.676
		C542.064,510.608,538.952,506.94,534.317,504.795z"/>
</g>
<g id="Montana">
	<path fill="#002857" d="M207.494,127.476c9.867,0.828,22.217,3.921,32.262,5.61c16.646,2.802,34.366,5.819,51.899,8.417
		c21.098,3.125,43.562,5.705,65.224,7.715c7.254,0.673,14.488,1.647,21.742,2.105c4.308,0.271,8.66,0.089,12.625,0.701
		c-2.905,29.824-3.674,61.784-7.013,91.173c-29.525-2.549-59.699-5.025-89.07-9.118c-8.164-1.138-16.468-3.054-24.547-2.805
		c-1.949,2.023-1.827,6.121-2.104,9.818c-2.917,0.112-1.401-4.21-3.507-4.909c-3.817-0.779-2.24,3.838-5.61,3.507
		c-2.924-0.884-6.115-2.014-9.118-2.104c-1.509-0.044-2.185,1.263-3.507,1.403c-1.329,0.141-2.648-0.707-4.208-0.702
		c-2.176,0.009-3.027,0.728-4.909,1.403c-0.786-3.653,0.017-10.609-5.61-11.221c-1.582-1.516,0.581-2.392,0-4.909
		c-0.262-2.072-2.077-3.247-2.806-5.611c-1.015-3.293-0.089-7.674-2.104-10.52c-2.694-0.458-3.892,2.476-5.61,2.805
		c-2.365,0.453-1.996-0.141-4.909-1.402c-0.921-2.065,1.402-2.128,1.402-3.507c0-0.271-0.486-1.085-0.701-0.701
		c0.971-1.729,1.874-0.921,2.805-2.806c-1.539-6.924,2.632-11.052,4.208-16.833c-0.013-2.325-3.963-0.711-4.909-2.104
		c1.861-1.892-0.427-0.302-1.403-1.402c-0.46-0.518-0.296-1.574-0.701-2.104c-1.081-1.413-1.053-0.351-0.701-2.104
		c0.087-0.438-1.162-1.639-1.404-2.104c-0.965-1.862-2.273-4.498-3.505-6.312c-0.801-1.178-1.865-1.668-2.806-2.805
		c-0.46-0.555-0.229-1.473-0.702-2.104c-0.593-0.792-1.516-1.403-1.402-2.805c0.098-1.191,0.859-1.547,0.701-2.806
		c-0.496-3.956-2.567-6.192-4.208-9.117C204.95,142.231,206.617,135.248,207.494,127.476z"/>
</g>
<g id="Wyoming">
	<path fill="#002857" d="M384.232,243.899c-3.038,29.918-3.937,61.988-7.013,91.875c-41.44-2.978-81.578-7.261-119.929-13.326
		c3.453-21.148,6.451-44.737,9.819-68.03c0.5-3.464,1.59-6.918,2.104-10.52c0.622-4.354-0.247-9.113,2.805-11.923
		c4.404,0.402,14.87,1.767,22.443,2.806c24.1,3.303,51.256,6.495,76.446,8.416C375.336,243.536,379.819,244.106,384.232,243.899z"/>
</g>
<g id="Colorado">
	<path fill="#002857" d="M292.357,328.759c39.138,4.345,78.947,8.023,119.928,10.521c-1.989,30.508-2.825,62.168-4.912,92.575
		c-42.937-2.768-85.233-6.525-126.942-11.221c-0.141-3.551,0.229-7.529,0.701-11.221c3.21-25.037,6.973-53.378,10.521-78.549
		C291.595,329.869,291.54,328.877,292.357,328.759z"/>
</g>
<g id="New_Mexico">
	<path fill="#002857" d="M387.738,443.778c-1.035,8.611-0.844,17.807-1.402,26.65c-1.105,17.375-2.234,34.68-3.507,51.9
		c-0.623,8.4-0.937,16.639-2.805,24.545c-23.274-1.506-46.037-3.523-68.731-5.609c-2.409,0.902,1.862,4.555,0,4.91
		c-9.977-1.244-20.641-1.803-30.158-3.506c-2.058,2.383-1.049,7.832-2.805,10.518c-4.568-1.041-10.487-0.736-14.729-2.104
		c5.24-43.385,11.156-86.096,16.131-129.746c35.871,3.871,71.232,8.254,109.411,9.816L387.738,443.778z"/>
</g>
<g id="Arizona">
	<path fill="#002857" d="M156.297,506.901c0.216-1.654,2.436-1.307,2.104-3.508c0.688-0.684,3.317,0.893,4.208,0
		c0.077-0.076,1.162-3.309,1.403,0c1.051-0.607,0.003-3.715,0.701-4.209c0.396-0.281,2.1,0.676,2.104,0.703
		c-0.15-0.943-2.028-2.109-2.806-2.793c-0.862-0.764-1.207-1.789-2.806-2.111c0.937-3.045,0.097-4.682,0.701-7.012
		c0.224-1.77,3.19,0.945,3.507,0.701c0.423-0.332-1.408-1.424-1.402-1.402c-0.214-0.904,3.068-4.91,3.507-6.313
		c0.624-1.99-0.085-4.359,0.701-5.607c2.5-3.959,5.714-2.555,8.417-7.014c-0.061-2.025-1.416-2.707-3.507-4.203
		c-0.146-7.215-5.605-12.645-0.701-17.537c-0.185-7.734,0.236-15.943,0.701-21.037c3.199-1.086,2.967,0.553,6.312,0.701
		c1.119,0.518-0.16,3.434,2.104,2.807c1.87,1.811,2.208-1.41,3.507-2.807c1.026-1.102,1.409-1.902,2.103-5.609
		c0.656-3.504,1.441-9.473,2.104-13.324c9.749,1.66,19.331,4.02,29.457,5.609c1.14,0.18,2.368-0.186,3.507,0
		c16.668,2.717,37.64,5.844,56.808,8.416c-5.962,42.9-10.682,87.041-16.833,129.746c-13.14-1.35-25.198-3.793-38.573-4.91
		c-0.584-0.287-0.648-1.697,0-1.402c-1.157-0.525-6.502-0.533-4.909-3.508c-1.439,1.643-3.138-0.537-4.909-1.402
		c-1.49-0.727-4.362-1.541-4.91-2.104c-0.141-0.146,1.025-1.207,0.701-1.404c-0.689-0.416-0.555,0.674-0.701,0.701
		c-0.868,0.18-0.356-0.576-0.702-0.701c-3.401-1.215-6.866-3.215-9.818-4.908c-2.507-1.438-4.921-2.783-7.013-4.91
		c-0.376-0.381-1.576,0.248-1.404-0.703c-0.034,0.184,1.195-0.398,0.702-0.701c0.012,0.008-2.835,1.346-3.507,0
		c-0.044-0.102,0.938-1.309,0.701-1.402c-0.641-0.268-1.687,0.729-3.506,0c-1.316-0.529-2.259-2.07-3.507-2.805
		c-0.751-0.443-1.422-0.309-2.104-0.703c-2.266-1.309-6.353-3.51-9.117-5.607c-0.437-0.332-1.567,0.199-1.404-0.705
		c-0.033,0.184,1.195-0.391,0.702-0.699c-0.683-0.424-0.56,0.672-0.702,0.699c-0.625,0.125-4.387-2.832-5.61-3.508
		C160.548,509.27,158.159,508.665,156.297,506.901z"/>
</g>
<g id="Nevada">
	<path fill="#002857" d="M182.948,428.35c-2.793,0.223-1.899-3.242-4.208-3.508c-2.166,0.115-3.964-1.656-5.611,0
		c-1.843,0.369-1.379,2.074-1.402,3.508c-0.018,1.113,0.083,1.643,0,2.805c-0.177,2.48-0.515,5.16-0.702,7.717
		c-0.17,2.352,1.111,4.203,0.702,6.311c-0.344,1.773-3.17,2.053-2.104,4.207c-14.726-20.594-31.515-46.031-47.69-69.432
		c-2.54-3.674-5.743-7.621-8.417-11.922c-1.027-1.652-1.89-3.324-3.506-5.611c-0.312-0.439-1.146-0.986-1.403-1.4
		c-0.333-0.535-0.281-1.488-0.702-2.105c-0.711-1.045-2.052-1.697-2.806-2.804c-0.456-0.673-0.307-1.471-0.701-2.104
		c-1.325-2.132-4.264-5.346-6.312-8.417c-3.343-5.014-4.939-5.813-3.506-11.923c0.285-1.216,1.118-2.301,1.402-3.506
		c0.727-3.069,0.791-6.583,1.403-9.118c3.976-16.462,8.953-33.315,12.625-49.794c32.05,7.926,65.292,14.66,98.888,21.04
		c-5.172,27.673-9.776,57.175-15.43,84.861c-1.797,8.809-2.603,17.996-4.208,26.65c-0.793,4.275-2.007,8.385-2.805,12.627
		C185.691,420.479,185.878,424.973,182.948,428.35z"/>
</g>
<g id="Utah">
	<path fill="#002857" d="M209.599,292.29c16.545,2.625,32.349,5.992,49.795,7.715c-0.806,8.313-1.915,16.32-3.507,23.845
		c12.267,0.824,22.938,3.246,35.066,4.208c-4.308,30.294-7.587,61.613-11.923,91.876c-31.082-3.285-60.237-8.496-89.771-13.326
		C196.125,368.586,203.116,330.692,209.599,292.29z"/>
</g>
<g id="Idaho">
	<path fill="#002857" d="M160.797,282.297c1.099-7.385,2.722-12.62,4.018-19.033c1.346-6.653,2.142-13.462,3.495-19.798
		c0.462-2.162,2.068-3.833,2.795-5.657c0.706-1.768,0.563-4.189,0.973-5.95c-0.661-1.454-3.379-1.045-3.273-3.273
		c-0.12-7.191,4.677-8.171,8.59-11.282c-1.301-2.203,0.567-3.153,1.462-4.615c0.799-1.305,1.923-4.323,2.806-5.611
		c2.016-2.941,4.509-3.972,4.441-6.546c-0.048-1.832-1.748-3.384-2.806-4.91c-1.016-1.461-1.561-1.675-2.41-3.774l0.699-1.414
		c-0.732-1.718,0.061-1.984-0.627-4.63c-0.208-0.803-0.284-3.224-0.234-3.975c-0.008,0.12,0.658-0.721,0.861-1.293
		c0.738-2.085-0.059-5.371,0.308-7.356c1.364-7.369,4.364-14.519,5.377-22.91c0.624-5.17,2.414-8.129,2.806-11.923
		c0.115-1.111,0.611-3.33,0.701-3.507c0.199-0.388,0.953-4.311,0.935-4.208c0.651-3.71,0.34-3.679,1.622-6.079l12.872,2.806
		c-0.882,8.028-2.072,14.058-3.74,21.275c1.647,3.022,3.14,5.229,3.638,9.315c0.158,1.3-0.607,1.668-0.703,2.899
		c-0.115,1.448,0.812,2.08,1.407,2.897c0.476,0.652,0.242,1.602,0.704,2.173c0.944,1.174,2.011,1.681,2.814,2.897
		c1.238,1.874,2.55,4.597,3.519,6.521c0.242,0.48,1.495,1.721,1.407,2.174c-0.352,1.809-0.381,0.713,0.703,2.173
		c0.407,0.548,0.242,1.638,0.703,2.173c0.98,1.137,3.571,0.359,1.703,2.313c0.949,1.438,4.619-1.092,4.632,1.309
		c-1.582,5.968-5.475,8.839-3.931,15.991c-0.936,1.946-1.841,1.112-2.815,2.897c0.216-0.396-0.224,1.498-0.224,1.778
		c0,1.426-0.69,1.608,0.233,3.74c2.925,1.305,3.473,1.638,5.845,1.169c1.725-0.339,1.971-2.812,4.675-2.338
		c1.954,2.84,0.527,6.344,1.637,10.053c0.731,2.442,2.309,3.236,2.571,5.377c0.583,2.6-1.119,3.811,0.467,5.376
		c6.972,0.781,4.626,5.635,5.844,11.456c1.889-0.697,2.726-1.16,4.91-1.169c1.565-0.006,2.407,0.613,3.74,0.467
		c1.326-0.145,3.394-1.683,4.909-1.636c3.013,0.093,5.716,0.958,8.65,1.87c3.382,0.342,1.779-3.843,5.61-3.039
		c2.112,0.723,0.111,5.258,3.039,5.144l-8.475,56.984L160.797,282.297z"/>
</g>
<g id="California">
	<path fill="#002857" d="M43.382,360.321c2.793,0.713,2.651,4.359,5.61,4.908c0.088-0.859,0.121-2.816-0.702-6.313
		c-0.463-1.971-1.938-4.717-2.103-7.714c1.423-0.402,2.134-0.11,3.505,0c0.639,0.053,1.065,0.871,2.105,0.703
		c0.571-0.093,3.082-0.651,4.208,1.401c2.144,0.507,2.555-0.717,4.208-0.7c1.05,1.054,1.255,2.952,2.806,3.507
		c1.177-4.074-5.124-3.309-3.507-5.612c-3.146,2.585-6.059-2.091-8.416,0c-2.33-0.709-2.196-3.881-5.611-3.506
		c-2.1,0.706-1.384,4.226-2.104,6.312c-1.359-0.934-2.954-2.697-4.208-4.208c-1.101-1.325-3.177-2.304-2.103-4.208
		c0.762,0.175,0.475,1.395,1.402,1.403c-0.319-3.17-0.819-6.1-2.104-9.118c-0.357-0.837-0.949-0.81-1.403-1.402
		c-0.358-0.469-1.842-2.637-2.105-3.508c-0.179-0.591,0.273-1.555,0-2.104c-1.065-2.146-3.197-4.226-3.506-6.313
		c-0.14-0.944,1.305-2.758,1.402-4.908c0.096-2.111-0.912-3.795-0.701-4.91c0.717-3.807,3.528-4.853,2.805-10.521
		c-0.326-2.561-1.549-5.844-2.805-8.417c-0.726-1.486-2.66-3.114-2.805-4.91c-0.385-4.743,2.462-9.103,7.013-10.52
		c-1.994-1.224,1.091-2.376,1.402-3.507c0.26-0.947-0.487-2.944,0-4.208c0.728-1.889,2.763-2.897,3.506-4.909
		c1.476-3.996-0.834-9.624,1.403-14.027c22.966,5.555,44.257,12.785,68.03,17.533c-1.838,11.844-5.048,23.132-7.715,34.365
		c-2.681,11.29-5.508,22.465-8.417,33.665c14,21.337,29.289,41.833,43.483,63.121c0.844,1.268,1.24,2.926,2.104,4.207
		c0.711,1.059,2.104,1.789,2.805,2.807c0.865,1.254,1.24,2.922,2.104,4.207c0.709,1.053,2.113,1.789,2.806,2.805
		c0.847,1.244,1.271,3.057,2.104,4.209c0.765,1.055,2.088,1.77,2.805,2.805c0.845,1.219,1.346,3.031,2.105,4.205
		c0.297,0.463,1.142,0.986,1.403,1.402c4.403,7.084,9.742,15.48,15.429,22.443c-2.208,4.314,3.979,8.77,2.104,12.625
		c0.663,2.143,3.414,2.197,3.507,4.91c-0.604,2.557-3.634,2.441-4.91,3.506c-1.11,0.924-2.736,2.648-3.506,4.207
		c-0.906,1.836-0.266,5.604-1.403,7.717c-0.221,0.408-1.054,0.877-1.402,1.404c-0.635,0.955-1.426,2.123-3.507,2.805
		c0.227,3.205,0.722,3.891-0.701,6.313c-0.091,2.428,3.085,1.588,3.507,3.506c0.803,2.906-1.475,2.732-1.402,4.908
		c-14.412-1.25-33.338-3.43-49.794-4.908c-0.723-0.98,0.693-2.852,0.701-2.807c-0.388-2.295-1.946-0.693-2.103-2.104
		c-0.222-1.984,1.092-5.24,0.702-8.416c-1.074-8.709-8.265-11.836-11.924-18.938c-1.987-0.73-2.922-0.73-4.909,0
		c0.344-3.148-0.355-5.256-0.702-7.717c-5.459-1.57-8.661-1.563-11.922-4.908c-0.899-0.922-0.781-2.412-1.403-3.506
		c-1.901-3.354-4.5-5.77-9.118-5.609c-1.942-2.875-6.032-3.066-9.818-3.51c-1.459-0.176-1.874-3.566-4.208-3.512
		c2.152-2.99,1.486-8.801,3.507-11.922c-0.067-2.738-2.833-2.777-4.208-4.209c0.301-1.336,1.511-1.762,1.403-3.506
		c-0.246-2.203-2.417-3.191-3.506-4.91c-0.318-0.502,0.255-1.564,0-2.105c-0.212-0.445-2.296-1.621-2.806-2.807
		c-0.974-2.26-0.476-4.68-1.403-7.012c-0.317-0.799-1.638-1.133-2.104-2.105c-0.507-1.061-0.321-2.143-0.701-2.805
		c-1.796-3.139-3.191-4.885-2.104-10.521c2.526,0.424,2.067-2.141,4.208-2.104c0.217-2.555-0.111-4.563-0.701-6.311
		c-0.295-1.574-3.721-0.021-4.208-1.402c-1.053-2.264-3.001-3.604-3.507-6.313c-0.262-1.398,1.269-2.059,1.402-3.506
		c0.13-1.418-1.776-4.328-0.701-4.91"/>
	<line fill="none" x1="41.979" y1="360.321" x2="42.681" y2="360.67"/>
	<path fill="#002857" d="M42.681,360.67c-0.099-1.088,0.101-2.234,0.701-3.156"/>
	<line fill="none" x1="42.681" y1="360.67" x2="43.382" y2="360.321"/>
</g>
<g id="Oregon">
	<path fill="#002857" d="M39.875,250.912c-1.748-4.58-0.333-10.733,2.105-13.326c-3.234-6.647,3.064-9.455,3.507-14.728
		c1.541,2.718,2.831-4.172,3.507,0c2.61-2.35-0.644-3.043,0.701-5.61c1.67-0.433,1.151-3.056,4.208-2.104
		c0.508-2.146-1.21-2.063-0.702-4.208c2.986-3.325,2.719-9.905,6.312-12.624c-0.708-7.656,6.134-13.381,7.013-21.742
		c1.038-0.812,1.768-0.812,2.806,0c-0.147-0.924-1.368-1.099-1.403-2.104c-0.044-1.278,1.058-1.332,1.403-2.805
		c0.278-1.186-0.217-2.646,0-3.507c0.662-2.632,2.142-4.843,2.104-7.715c2.27-0.866,0.537,2.269,2.806,1.402
		c1.821-2.001,5.755-0.185,5.61,2.104c3.463-0.658,4.757,0.854,6.312,2.104c-0.507,0.898,0.646,1.145,0.701,1.403
		c1.345,6.346-2.939,8.536,2.105,11.923c0.835,0.561,1.937,0.149,2.805,0.701c0.624,0.397,0.409,1.231,1.402,1.403
		c1.371,0.236,3.59,0.252,4.909,0c1.436-0.275,1.93-1.418,3.507-1.403c4.058,0.04,7.256,1.565,9.819,4.208
		c2.688,1.303,5.524-0.313,8.416,0c1.351,0.147,2.786,1.361,4.208,1.402c4.951,0.144,9.83-1.446,14.729-1.402
		c1.653,0.015,3.98,0.6,5.61,0.701c1.765,0.111,3.343-0.192,4.909,0c5.001,0.618,9.914,2.506,14.728,3.507
		c5.086,1.057,9.914,2.13,15.429,2.804c0.853,2.082,1.787,3.459,2.806,4.91c1.063,1.512,2.756,2.391,2.806,4.207
		c0.068,2.553-2.887,4.797-4.909,7.715c-0.886,1.276-1.302,2.914-2.105,4.208c-0.897,1.451-3.409,2.024-2.103,4.208
		c-3.928,3.085-8.536,5.49-8.417,12.624c-0.107,2.21,2.843,1.365,3.506,2.806c-0.412,1.746-0.167,3.681-0.876,5.435
		c-0.73,1.809-2.342,3.465-2.805,5.61c-1.359,6.285-2.158,13.039-3.507,19.637c-1.301,6.361-3.165,12.713-4.208,18.937
		c-33.175-6.212-65.733-15.202-96.609-23.671c-0.988-0.271-1.691-0.568-2.105-0.701C53.816,254.939,46.366,254.452,39.875,250.912z"
		/>
</g>
<g id="Washington">
	<path fill="#002857" d="M104.398,124.67c1.555-0.386,0.999,1.34,2.104,1.403C106.217,127.819,103.784,126.115,104.398,124.67z"/>
	<path fill="#002857" d="M102.294,128.178c1.747,0.285,0.042,2.719-1.403,2.104C101.139,129.361,102.126,129.179,102.294,128.178z"
		/>
	<path fill="#002857" d="M74.942,156.231c0.47-2.618-1.944-4.116,1.402-4.208c-0.456-0.714-1.612-0.726-1.402-2.104
		c1.914-0.064,1.411,1.168,2.805,0c1.419-2.25-2.775-2.193-0.702-2.806c-0.071-1.351-2.613,1.089-3.505-0.701
		c-0.161-3.2,3.856-2.222,5.61-3.507c-2.119-0.686-2.848-2.763-4.909-3.506c1.192-3.035-0.589-6.451,0-10.52
		c0.241-1.666,1.06-5.551,0-8.417c-0.324-0.877-1.225-1.127-1.403-2.104c-0.301-1.647-0.179-4.141,0-5.61
		c0.006-0.055,1.227,0.918,1.403,0.701c0,0-0.796-1.534-0.701-2.104c0.179-1.094,3.433-2.5,0.701-2.104
		c0.202-1.912,1.178,0.558,2.103,1.402c1.785,1.63,3.359,1.517,2.104,4.208c0.714-0.457,0.725-1.613,2.104-1.403
		c0.193,2.916,3.176,2.297,6.312,3.506c0.33,0.128,0.442,1.29,0.701,1.403c0.994,0.435,3.076,0.083,4.208,0.702
		c0.963,0.526,1.778,2.296,4.208,0.701c-0.918,3.11,4.014,2.215,2.104,4.208c0.936,0,1.87,0,2.806,0c0,1.402,0,2.805,0,4.208
		c-2.907-1.497-2.633,1.455-4.208,0c-1.809,0.168,0.963,1.207,0,2.805c-0.941,0.653-5.871,3.41-6.312,4.91
		c-0.353,1.202,2.684,1.793,0.702,2.806c1.379-0.958,4.006-0.669,5.611-1.403c-2.008,1.499-2.991,4.022-6.312,4.208
		c1.422,0.917,0.963,3.712,2.806,4.208c0.655-0.514,1.063-1.275,1.403-2.104c0.038,1.05,1.703,1.254,0.701,2.805
		c2.384-1.016,2.643-3.135,4.208-4.208c0.608-0.417,0.682,0.704,0.701,0.701c1.306-0.187,2.727-2.302,4.208-2.805
		c-0.57-1.35,0.666-2.901,0.702-4.208c0.017-0.639-0.596-2.472-0.702-2.104c0.262-0.912,1.021-0.125,1.403-0.702
		c0.433-0.654-0.417-2.14,0-2.806c0.594-0.944,2.549-1.254,2.806-2.805c1.222,0.633,2.702,1.568,1.403,2.805
		c2.564-1.333-1.506-3.355-2.105-6.312c-0.414-2.044,1.931-4.665-0.701-6.313c1.05-1.873,2.58-5.423,2.104-8.417
		c-0.151-0.948-1.116-0.144-1.403-0.701c-0.15-0.293,1.025-2.164,0-0.702c-1.19-0.456-0.438-1.612,0.702-1.402
		c0.036-1.328-1.668-0.125-1.403,0c-1.747-0.821,0.778-2.908-0.701-1.403c-1.148-3.244,1.801-0.813,2.806-0.701
		c2.13,0.236,5.919,0.718,8.417,1.402c2.519,0.692,4.951,2.229,7.013,2.806c1.083,0.303,2.401-0.225,3.507,0
		c2.244,0.457,4.114,2.433,5.61,2.806c0.39,0.097,1.708-0.853,2.806-0.702c1.592,0.221,3.289,1.678,4.909,2.105
		c1.096,0.288,2.403-0.258,3.507,0c1.511,0.353,3.377,1.839,4.909,2.104c4.276,0.738,7.942,1.869,11.923,2.805
		c4.276,1.01,8.392,1.162,12.625,2.104c0.85,0.189,2.078,1.239,2.804,1.403c5.112,1.153,10.189,1.017,14.729,2.806
		c-1.287,2.378-0.749,4.035-1.403,7.715c0.018-0.102-0.502,2.421-0.701,2.806c-0.091,0.175-1.382,0.604-1.403,0.701
		c-0.086,0.41,0.816,1.703,0.701,2.805c-0.393,3.763-2.179,6.794-2.805,11.924c-1.017,8.322-4.244,17.237-5.611,24.546
		c-0.368,1.97,0.04,3.542-0.701,5.61c-0.204,0.568-1.41,2.222-1.403,2.104c-0.051,0.744,1.193,1.306,1.403,2.104
		c0.689,2.626-0.734,3.906,0,5.61c-5.175,0.858-10.256-1.694-15.429-2.805c-3.068-0.659-7.054-0.421-9.818-1.404
		c-0.232-0.082-0.559-1.368-0.701-1.402c-0.342-0.081-1.293,0.743-2.105,0.701c-1.294-0.065-2.973-1.274-4.208-1.402
		c-2.337-0.244-2.705,0.375-4.91,0c-1.109-0.189-5.726-0.678-5.61-0.702c-0.444,0.094-0.708,1.403-0.702,1.403
		c-1.146,0.05-2.587-0.766-4.208-0.701c-1.423,0.057-7.852,1.726-9.118,1.402c-0.494-0.126-0.755-1.997-2.104-1.402
		c1.168-1.394-0.063-0.892,0-2.806c-0.883,0.173-0.707,1.395,0,1.402c-0.063,1.402-1.538,0.029-1.403,0
		c-0.605,0.128-1.17,1.366-1.403,1.403c-2.063,0.334-4.186-0.236-7.013,0c0.51-1.914-1.395-1.411-1.404-2.806
		c-4.07,0.133-5.746-2.202-9.117-2.104c-0.77,0.022-1.648,1.273-2.104,1.402c-1.044,0.295-1.048-0.686-1.403-0.701
		c-1.861-0.08-2.762,1.515-3.507,1.402c-1.551-0.234-3.897-3.067-6.312-3.507c-0.274-4.336,0.932-7.009,0-10.52
		c-0.1-0.38-0.212-1.858,0-1.403c-0.496-1.062-0.546,0.08-0.701,0c-2.977-1.53-1.268-4.647-5.61-2.806
		c1.302-1.432-0.336-0.946,0-0.701c-0.636-0.465-0.792-2.409-2.104-2.805c-0.482-0.146-1.71,0.294-2.105,0
		c-0.506-0.378-0.37-2.183-2.103-1.403"/>
	<path fill="#002857" d="M98.787,133.086c-0.419,1.823,0.282,2.524,2.104,2.104c0.874,2.978-2.333,1.875-2.806,3.507
		c-0.948-1.389-1.947-2.729-4.909-2.104c-0.203-2.724,3.762-2.168,2.104-2.805c1.044-1.512,1.98,0.767,2.805-1.404"/>
	<line fill="none" x1="98.086" y1="132.385" x2="98.086" y2="133.086"/>
	<path fill="#002857" d="M98.086,133.086c0.497-0.204,0.815-0.587,1.053-1.052"/>
	<line fill="none" x1="98.086" y1="133.086" x2="98.787" y2="133.086"/>
</g>
<g id="Maine">
	<path fill="#002857" d="M989.484,175.869c1.359-0.279,1.024,3.195-0.701,2.104c0-0.467,0-0.936,0-1.402
		C989.38,176.699,989.444,176.296,989.484,175.869z"/>
	<path fill="#002857" d="M968.445,190.596c2.631,0.612,0.798,3.106-1.403,2.806C967.407,192.364,968.079,191.635,968.445,190.596z"
		/>
	<path fill="#002857" d="M918.475,184.109c0.116-1.175,1.89-0.287,2.807-0.703c1.616-0.731,0.913-3.365,3.506-2.804
		c-0.404-1.467-1.739-2.001-1.401-4.208c0.61-2.196,1.745-3.873,3.516-4.909c-1.857-1.9,0.741-2.629,0.699-4.208
		c-0.075-2.837-2.302-4.877-2.104-7.715c-0.01,0.139,0.411-2.829,0.702-3.507c0.263-0.605,1.312-0.409,1.401-1.402
		c0.205-2.232-0.862-4.728-0.699-7.013c0.14-1.993,1.452-2.985,2.104-4.909c0.471-1.393,0.202-3.294,0.704-4.909
		c0.411-1.328,1.012-2.429,1.396-3.507c0.355-0.987,1.022-2.521,1.4-3.507c0.377-0.937,0.463-3.193,2.111-2.806
		c1.828-0.538,0.89,1.279,1.401,2.104c0.802,1.289,2.229,1.485,2.798,2.806c3.771-1.372,6.323-3.969,9.116-6.313
		c1.287,0.227,3.258-0.042,4.915,0.702c0.595,0.27,0.864,1.748,1.397,2.104c0.623,0.412,2.353,0.157,2.805,0.701
		c0.521,0.626,1.252,3.775,2.111,6.312c1.554,4.651,2.751,9.767,4.909,15.43c0.657,1.729,1.985,4.312,2.103,7.715
		c1.289,1.517,4.135,1.475,7.015,1.402c-0.023,4.701,2.111,7.231,4.2,9.818c0.719-0.685,1.428-1.386,2.11-2.104
		c1.628,0.475,1.869,2.332,3.507,2.806c-0.01,1.394-1.909,0.893-1.401,2.806c0.475,1.389,2.33,3.083,2.805,0.701
		c1.602,1.459-1.934,6.522-4.208,4.208c-0.942,2.331-2.253,4.292-4.202,5.61c-0.76-0.173-0.472-1.395-1.4-1.403
		c-1.9,0.171-0.77,2.938-0.704,2.806c-0.579,1.153-3.152,0.342-2.103,2.806c-1.23-0.642-3.499-0.241-4.209-1.402
		c-1.12,1.9-1.522,3.697-3.507,1.402c0,1.87,0,3.74,0,5.61c-4.339,1.3-2.129-3.95-4.207-4.909c-2.047-1.309-0.943,2.018-1.403,2.806
		c-0.089,0.154-1.348-0.158-1.402,0c-0.354,1.161,0.706,2.139,0.703,3.507c-0.012,2.445-1.421,4.807-0.703,7.715
		c-1.422,1.385-5.988-0.378-4.908,3.506c-0.81,2.27-0.791-1.883-0.703-2.805c-2.142,0.919-3.997,4.313-4.911,0.701
		c-1.827,2.195,0.706,4.409-0.703,7.013c-0.944,0.477-0.434-2.049-0.703-2.104c-0.623-0.127-2.951,1.417-3.511,3.507
		c-0.318,1.189,0.23,3.075,0,4.208c-0.236,1.156-1.306,1.641-1.4,2.104c-0.261,1.221,1.006,1.512,0.703,2.805
		c-0.249,1.046-1.815,1.893-2.111,2.806c-0.775,2.454,0.336,4.926-0.7,5.61c-1.849,0.211-2.305-0.97-2.109-2.806
		c-2.371,0.035-3.037-1.632-4.203-2.804c0.617-4.153-2.36-7.685-3.513-11.221c-0.815-2.514-0.749-4.3-1.396-7.013
		c-0.041-0.174-0.703-0.041-0.703-0.703c0-0.335,0.604-1.002,0.703-0.701c-0.297-0.884-1.788-1.395-2.11-2.104
		c-0.288-0.629-0.669-2.708-0.7-2.806C922.601,195.618,921.067,189.453,918.475,184.109z"/>
</g>
<g id="Virginia">
	<path fill="#002857" d="M753.485,424.143c-0.937,0.316-1.95,0.576-2.808,1.051l2.455-0.352c2.973,0.436,4.845-0.482,6.313-0.699
		c7.604-1.125,18.303-2.064,22.444-4.209c-0.265,0.139-0.895-0.623,0-0.703c-0.049,0.004,1.227,1.318,2.107,1.402
		c2.651,0.254,7.218-0.35,9.818-0.701c10.506-1.41,20.094-4.326,30.16-5.609c3.053-0.387,3.952-1.096,5.604-1.402
		c4.961-0.916,7.984-0.648,11.923-1.402c8.715-1.668,18.011-4.158,25.248-5.609c2.146-0.428,4.746-0.15,6.313-0.701
		c0.459-0.158,0.623-1.227,1.402-1.404c-0.101,0.025,0.755,0.758,1.402,0.703c1.214-0.104,2.173-1.068,3.507-1.402
		c2.157-0.541,2.873-0.039,4.208-1.402c-0.222,0.223-0.923-0.271-0.703-0.703c0.272-0.539,1.183,0.178,1.398-0.701
		c0.141-0.553-0.623-2.412-0.701-2.807c0.087,0.461-0.68,0.869-0.703,0.703c-0.181-1.395,1.394-1.635,0-2.807
		c-2.555-0.623-3.736,1.238-4.913,0c-0.125,2.896,2.369,2.084,2.805,2.807c-1.487,1.404-3.124-0.996-4.909-1.402
		c-1.104,0.533-1.048,2.225-2.805,2.104c-0.583-2.252-0.599-1.455,0.702-2.807c-2.162-1.709-3.757,1.332-4.911-1.4
		c0.703,0.002,0.834-0.57,1.402-0.703c-1.694,1.768,1.098,1.24,1.402,0.703c-1.024-0.611-2.224-1.053-2.104-2.807
		c-1.914-0.047-4.203,0.063-5.61,0c0.644,0.027-1.87-0.273-1.402,0c-0.136-0.08,0.141-1.371,0-1.402
		c-1.472-0.334-3.089,0.859-4.908-0.703c2.124-1.008,5.996-1.684,7.012,0c0.105-0.824-0.117-1.988,0.704-2.104
		c0.725,1.242,2.107,2.922,4.208,2.572l2.455,1.637c1.483,1.287,2.387,2.416,4.559,1.402c1.092-2.818-1.986-3.273-3.507-3.156
		l-1.99-1.168l-1.513-0.586c-1.315-2.189-4.295-2.717-5.61-4.908c1.432,1.408,1.377-0.311,2.806-0.701
		c0.685,2.736,2.569,2.084,3.507,2.805c-0.364-0.281-0.766,0.33-0.701,0.701c0.285,1.668,2.611-1.217,2.801,1.402
		c1.41-1.43-0.306-1.375-0.701-2.805c0.701,0.002,0.834-0.568,1.401-0.701l-0.704-1.402c-0.039-0.896-0.901-0.973-0.701-2.105
		c-0.938,0-1.87,0-2.807,0c-0.291-2.436-2.138-1.939-3.507-2.805c-1.766-1.115-3.718-4.066-4.911-4.91c0.327,0.23-1.3,0.744,0-0.701
		c-3.014-0.33-0.903,1.889-2.109,2.105c-1.407-1.432,0.311-1.377,0.704-2.807c-1.249-0.387-2.914-0.361-3.512-1.402
		c0.921-0.9,2.591-0.9,3.512,0l0.817-0.352h0.583c0.22,1.654,2.431,1.305,2.106,3.506c2.403-1.639,1.642,0.914,2.806,0.703
		c2.189-0.4,0.979,1.588,4.204,3.508c-0.99-0.592,2.479,0.576,2.801,0.701c0.303-2.873-0.65-4.494-1.4-6.313
		c-4.238,1.051-4.557-6.25-9.937-3.391l-1.286,0.467c-0.22-1.65-2.432-0.836-2.104-3.039c-2.625,0.906-5.484,3.436-7.015,0
		c1.335-1.705,0.479-5.6,1.403-7.715c1.428,1.41,1.377-0.309,2.805-0.701c0.02-1.651-1.208-2.064-0.704-4.208
		c-2.075-1.791-3.46,1.16-4.202,0c0.783-0.147,1.093-0.777,1.401-1.401c-2.611-0.419-6.466-0.118-7.014-4.208
		c-0.271,1.076-0.84,0.103,0-0.701c-3.559,1.228-0.014-0.467-2.806-0.701c-1.387,1.18-1.113,4.024-2.8,4.909
		c-0.021-1.798-1.84-0.87-2.803-1.402c0.276,0.153,1.075-0.443,0.703-0.701c-0.805-0.547-3.966-1.229-6.313-2.805
		c-1.223,1.848,0.099,4.53-0.703,7.013c-0.055,0.155-1.274,0.492-1.401,0.702c-0.497,0.816-0.431,3.152-0.704,3.505
		c-0.582,0.768-2.227,0.668-2.801,1.404c-1.374,1.74-0.806,4.934-4.204,3.506c0.087,1.941,1.338,2.408-0.703,1.402
		c0.385,4.131-0.795,6.684-2.801,8.416c-3.467,0.658-4.765-0.854-6.315-2.104c-0.222,1.625,0.111,2.691,0.702,3.506
		c-3.396,0.043-2.769,7.598-2.806,7.715c-0.051,0.158-1.315-0.156-1.399,0c-0.369,0.701,0.193,2.029,0,2.807
		c-0.297,1.164-1.169,2.184-1.399,2.805c0.584-1.553-1.326,1.229-1.403,1.402c-0.319,0.748-0.715,1.086-0.703,2.105
		c0.043,2.633,1.277,2.066,1.402,3.506c0.005,0.041-1.351-0.072-1.402,0c-0.609,0.863,0.623,2.521,1.402,3.506
		c-1.587-1.668-3.315,0.672-4.909,1.402c-0.583,0.266-1.525-0.266-2.11,0c-1.358,0.633-1.926,3.484-4.201,2.105
		c-0.943,3.24-2.875,3.016-4.208,3.508c-1.967,0.725-3.621,0.922-5.605,0c-0.157,1.945-2.229,1.982-2.803,3.506
		c-0.759-1.41-2.302-0.633-3.513-0.701c-1.98-0.111-0.179-0.836-0.704-1.402c0.145,0.16-4.102-0.916-4.207-3.506
		c-3.075-0.279-1.828,3.779-4.203,4.207l-1.402,1.402c-2.384,0.891-3.272,3.275-5.606,4.207c-0.027,0.965,0.331,1.539,0.703,2.104
		c-4.12,0.52-2.689,5.506-4.914,6.313c-0.003-0.703,0.572-0.834,0.703-1.4c-2.693,0.346-2.472,3.604-4.911,4.207L753.485,424.143
		l-0.353-0.705"/>
	<path fill="#002857" d="M881.479,381.36c-0.141-2.775,1.081-6.721,2.798-8.416c0.238-1.406-0.142-2.193-1.395-2.104
		c0.579-1.758,2.457-2.219,3.506-3.508c3.786,1.053-2.279,6.639,0,9.818c-1.232,1.338-2.482,2.66-3.506,4.209"/>
</g>
<g id="Tennessee">
	<path fill="#002857" d="M636.713,447.286c2.103,0.135,0.586-2.691,0.703-2.805c0.141-0.141,1.347,0.162,1.396,0
		c0.382-1.049-1.228-2.367,0.702-3.508c9.112-0.238,17.458-1.244,25.95-2.104c-0.384-1.025,0.819-3.625-0.703-3.506
		c2.873-0.184,7.563-0.916,11.922-1.402c8.987-1.006,18.479-1.451,28.055-2.107c5.077-0.344,10.223-1.713,15.429-2.104
		c6.369-0.475,13.215-0.598,19.633-1.402c3.514-0.439,7.136-1.744,10.518-2.104c10.171-1.08,21.238-2.008,30.159-4.908
		c1.561,0.717-0.913,3.223,0,5.607c-2.871,0.637-3.569,3.438-4.203,6.313c-4.106-1.842-6.858,2.049-8.42,4.91
		c-1.91-0.357-1.06-2.023-2.105-2.105c-2.021-0.158-2.305,4.453-4.205,2.807c-0.782,1.326-0.896,3.316-1.403,4.908
		c-3.372-1.064-6.07,4.068-8.419,6.311c-6.059-0.215-9.432,2.27-9.82,7.717c-1.467,0.402-1.998,1.748-4.205,1.402
		c0,2.111,0,4.207,0,6.313c-18.548,1.59-36.94,4.287-55.4,5.609c-13.121,0.939-25.862,3.336-39.28,4.209
		c-5.004,0.324-10.193,0.408-15.429,0.699c0.196-1.441,1.871-1.398,2.806-2.102c-1.122-3.313-1.19-5.07,0.117-7.717
		c0,0-1.354-1.037-0.938-1.4c1.87-1.637,2.177-0.832,2.917-2.107c0.825-1.412-0.578-2.457,0-3.504
		c0.129-0.234,1.853-0.469,2.108-0.703c0.583-0.547,0.539-1.904,1.403-2.805c1.475-1.549-0.573-1.283-0.703-2.807
		c-0.192-2.176,2.716-2.783,2.107-4.908"/>
</g>
<g id="North_Carolina">
	<path fill="#002857" d="M884.985,443.077c0.09,1.26-0.858,1.482-0.703,2.809c-1.689,0.285-1.523-1.279-3.507-0.703
		c-1.604,2.139-4.091,3.393-7.715,3.51c-1.281,1.057-1.649,3.023-2.807,4.207c-0.36-0.799-0.493-2.352-2.797-2.807
		c3.037,6.451-5.868,7.742-5.61,15.43c-0.92-0.246-1.104-1.232-2.104-1.4c0.021,2.307,1.185,3.49,0.7,6.311
		c-3.437,1-7.519,1.365-10.517,2.807c-1.187-0.502-1.544-1.928-2.802-2.807c-0.831-0.578-2.628-0.77-3.514-1.402
		c-0.926-0.66-1.807-2.082-2.799-2.805c-0.538-0.385-1.512-0.258-2.109-0.703c-0.341-0.256-0.378-1.172-0.703-1.4
		c-0.672-0.473-1.501-0.236-2.11-0.703c-1.009-0.775-2.692-2.432-4.2-3.516c-2.182-1.545-4.982-3.959-6.319-4.197
		c-1.388-0.26-6.197,0.932-9.11,1.402c-3.477,0.549-7.073,1.512-11.228,2.102c-0.182-2.623-1.626-3.98-2.8-5.609
		c-7.215-1.727-12.95-0.086-19.637,0.703c-2.951,0.35-5.978-0.045-8.418,0.705c-1.08,0.328-2.598,1.566-3.512,2.105
		c-0.743,0.443-1.519,0.158-2.104,0.703c-0.896,0.83-1.516,1.285-3.509,2.109c-1.025,0.418-0.749,0.076-1.4,0.701
		c-2.793,2.674-12.229,2.531-18.234,3.512c-2.203,0.354-4.623,0.889-7.014,1.398c0-1.869,0-3.74,0-5.605
		c2.205,0.34,2.746-0.996,4.206-1.402c-0.506-2.146,1.21-2.064,0.704-4.203c1.827-2.842,5.803-2.238,9.113-4.207
		c1.462-0.865,2.513-2.822,4.204-4.207c0.884-0.719,1.251-1.539,3.51-1.402c1.347-2.631,3.206-4.736,4.912-7.01
		c1.389,0.008,0.896,1.91,2.799,1.404c2.425-1.307,3.804-6.658,7.717-4.207c2.522-1.686,1.949-6.475,5.609-7.014
		c0.029-2.311,1.186-3.49,0.702-6.311c7.979,0.012,14.295-0.793,22.445-2.105c9.195-1.48,20.449-3.455,31.562-5.609
		c5.035-0.977,12.188-2.871,18.939-4.207c4.348-0.863,8.743-1.25,12.629-2.107c3.757-0.826,6.022-1.941,10.512-2.803
		c5.571-1.068,7.334-0.252,9.826,4.908c-0.921-0.248-1.104-1.236-2.109-1.402c-0.022,1.199,0.521,1.814,1.402,2.105
		c-1.713,1.877-3.177-2.857-5.604-0.701c0.221,1.648,3.314,0.416,2.8,2.807c-1.828,0.445-2.149,0.156-4.203,1.402
		c-0.288,0.869-0.8,2.037-2.11,3.506c-0.813-0.588-1.872-0.924-3.507-0.703c-0.732-1.605-0.444-4.23-1.401-5.609
		c-2.69,3.424,1.606,5.848,1.401,9.117c2.11,0.334,3.058-0.301,4.207-1.402c1.479-1.418,0.675,0.697,2.807,0
		c1.564-0.514,2.631-1.668,4.908-2.105c0.537,1.791,1.03,3.229-0.703,4.209c2.09,1.008,0.046,1.766,1.403,3.506
		c3.311-0.395,1.244-5.078,2.111-6.311c0.987,0.061,1.985,0.115,2.104-0.701c1.903,0.902,2.125,3.486,2.105,6.311
		c-0.703,0-1.397,0-2.105,0c-0.48,0.988-1.466,4.848-2.806,7.014c-2.351-0.215-6.079,0.938-5.605-2.105
		c-0.823,0.115-0.59,1.279-0.702,2.105c-2.586-0.131-1.366-2.287-2.104-2.805c-2.441-0.342-0.784,3.424-2.805,3.508
		c-3.006,0.482-5.325-2.041-7.014-0.703c2.258,2.652,7.48,2.342,11.225,3.51c0.482,1.885-1.45,1.354-2.11,2.104
		c-0.864,2.27,2.271,0.535,1.402,2.805c-1.23,0.629-2.172,1.568-2.801,2.801c-1.88-0.92-3.726-1.881-5.606-2.801
		c-1.146,1.215,1.434,3.666,3.507,4.203c2.657,0.699,5.809-2.221,7.715-0.701c-1.045-2.148,0.703-2.238,0.703-0.705"/>
	<line fill="none" x1="884.285" y1="441.676" x2="884.401" y2="442.493"/>
	<path fill="#002857" d="M884.401,442.493c0.307-0.109,0.901-0.365,1.637-0.467"/>
	<line fill="none" x1="884.401" y1="442.493" x2="884.985" y2="443.077"/>
</g>
<g id="South_Carolina">
	<path fill="#002857" d="M814.854,513.913c-0.625-0.311-1.256-0.615-1.402-1.402c-1.482,1.984,0.829,6.156,2.805,7.016
		c-0.297,1.104-0.644-0.188-1.401,0c-0.71,0.172-1.026,2.119-1.402,0.699c-1.81,0.17,0.962,1.207,0,2.809
		c-2.91,0.803-2.732-1.479-4.91-1.404c1.165-5.154-5.406-6.799-2.111-9.82c-4.118,3.207-0.54-0.816-4.198,0.703
		c-1.105-1.123-0.319-2.32-0.703-3.508c-0.456-1.412-1.58-1.668-2.104-2.805c-0.271-0.588,0.542-1.621,0.701-1.404
		c-0.619-0.854-2.393-1.744-3.507-2.803c-0.757-0.727-1.828-0.076-2.805-0.703c-1.105-0.703-0.62-3.344-2.808-2.105
		c1.318-1.311-1.277-2.201-1.394-2.805c-0.094-0.438,0.984-0.865,0.701-1.404c-0.258-0.471-0.944,0.637-0.701,0.703
		c-0.262-0.066-2.313-4.113-2.11-2.104c-0.06-0.586,0.904-1.285,1.402-1.404c-0.248-0.979-1.234-0.061-1.402,0.703
		c-0.804-1.338-3.017-0.52-4.204-1.404c-0.369-0.268-0.37-1.742-0.703-2.104c-0.515-0.551-2.432-2.604-3.507-3.508
		c-0.407-0.34-1.632,0.262-2.11,0c-2.188-1.205-2.673-4.16-4.909-4.908c0.727-2.244,0.218,0.012-1.402-2.104
		c-0.093-0.121-1.425-1.508-1.403-1.402c-0.223-1.131,0.868-1.246,0.704-2.111c-0.062-0.303-0.73,0.381-0.704,0.703
		c-0.141-1.646-0.972-1.82,0.704-2.109c-0.249-0.98-1.234-0.061-1.402,0.705c-1.401-2.34-7.103-0.381-7.014-4.207
		c-1.389,1.465-2.993,0.021-3.508-1.4c0.864-2.178,1.548-4.533,4.208-4.91c-1.866-1.85,2.07-1.482,2.104-3.508
		c4.249-0.787,5.525-0.27,5.609-2.805c0.813-0.551,1.25,0.705,1.4,0.703c0.979-0.004,0.176-1.131,0.702-1.398
		c0.081-0.041,2.87,0.91,2.806-1.402c3.729,0.197,8.048-0.895,12.624-1.404c5.045-0.563,11.377-2.068,12.624,1.404
		c0.683-0.021,0.545-0.861,0.703-1.404c2.432,0.838,2.954,3.588,3.507,6.313c1.342-0.381,3.226-1.332,4.91-1.402
		c0.641-0.02,1.493,0.689,1.402,0.705c0.731-0.129,1.658-1.283,2.104-1.402c2.11-0.563,5.315-0.262,7.716-0.705
		c1.517-0.271,3.602-0.619,4.912-0.701c0.984,0.244,0.062,1.23-0.703,1.402c0.372,1.463,1.388-1.064,2.806-0.705
		c0.02,0.01,0.555,1.992,0.701,2.107c0.424,0.318,1.607-0.203,2.111,0c0.312,0.129,0.937,1.111,1.4,1.404
		c0.942,0.582,1.828,0.67,0.703,2.104c2.431-0.736,1.174-0.705,4.208,1.404c0.679,0.473,2.612,1.225,2.802,1.4
		c0.462,0.436,0.166,1.73,0.703,2.105c0.981,0.684,3.354-0.197,1.401,2.109c0.623-0.545,1.587-0.754,2.806-0.703
		c0.137,2.213,4.81,1.99,2.804,4.209c0.563-0.377,1.142-0.734,2.106-0.705c-0.619,2.445-2.814,2.387-4.208,4.209
		c-0.462,0.604-0.222,0.906-0.701,1.4c-0.836,0.873-1.347,3.959-2.109,5.607c-0.146,0.336-0.999-0.426-0.704-0.703
		c-0.795,0.133-0.388,0.703,0,0.703c-0.854,0.182-2.801,2.672-2.804,1.396c-0.921,0.211,1.227,5.297-2.104,4.914
		c0.586,1.824,3.074-1.346,4.2,0.703c-0.19,1.627-1.869,1.613-2.801,0.701c0.42,1.313,1.364,2.59,0,2.109
		c-0.826-0.295,0.116,1.346,0,2.102c-1.842-0.01-4.656,0.391-2.803-1.402c-3.044,0.92,0.774,2.857-1.402,2.113
		c-0.703-0.246,0.442,2.328,0,2.803c-0.533,1.104-2.228,1.049-2.106,2.797c-1.99,0.119-1.368-2.371-4.205-1.404
		c0.476,1.871,1.343,3.336,2.104,4.92c-1.788-0.754-2.455,3.021-3.507,0.703c-0.796,0.139-0.387,0.703,0,0.703
		c-0.437,2.65-2.931-0.758-2.806,2.803c-3.597,1.348-6.651-1.08-7.716,2.807"/>
</g>
<g id="Georgia">
	<path fill="#002857" d="M747.874,564.233c-1.744-0.242-3.791,1.645-7.363,0.879c-0.905-2.479-2.473-5.594-4.209-8.418
		c-0.45-0.732-1.178-1.227-1.401-2.104c-0.492-1.949,0.423-5.326,0-7.717c-0.342-1.967-1.985-3.598-2.104-4.924
		c-0.357-3.988,0.454-8.447,2.808-11.223c-1.242-1.764-1.132-4.41-2.111-6.311c-0.419-0.82-1.588-0.742-2.104-1.404
		c-0.511-0.658-2.215-4.762-2.806-6.313c-2.259-5.908-3.743-14.215-5.604-21.039c-2.685-9.807-5.607-18.588-7.831-27.002
		c15.049-2.25,30.82-2.838,45.002-5.961c-1.024,2.025-1.916,4.158-3.516,5.605c0.427,4.01,5.769,3.115,7.015,6.316
		c2.149-0.5,1.346-0.5,3.506,0c2.055,3.152,4.713,8.82,7.715,11.221c0.598,0.479,1.542,0.236,2.104,0.701
		c1.202,0.986-1.051,1.451,2.111,0.703c-0.31,1.324,2.391,1.338,2.104,2.805c0.002-0.01-1.12,0.182-0.702,0.701
		c-0.024-0.027,0.982-0.471,1.4,0c1.428,1.607,2.56,1.975,5.607,3.508c1.572,5.207,5.847,7.715,10.521,9.822
		c0.324,3.182,2.854,4.156,2.807,7.713c0.563,1.775,2.881,1.789,4.198,2.803c-1.359,1.264,0.424,1.182,0,0.703
		c2.313,2.645,2.368,4.803,3.515,8.42c2.271-0.408,3.265,0.473,4.911,0.703c-0.398,2.678-2.38,4.535-4.209,2.105
		c-0.406,2.273,0.478,3.27,0.703,4.914c-3.643-1.25-2.399,7.244-1.401,8.418c-1.588,0.414-1.785,1.186-2.806,1.4
		c-0.239,0.053-1.483-1.084-2.107,0c0.587,1.516,3.617,0.592,4.202,2.105c-0.084,2.598-1.021,1.766-2.803,1.4
		c1.046,5.637-0.62,7.178,1.4,11.23c-3.192-0.086-6.53-0.02-7.714-2.111c-1.021,1.314-2.311,2.365-3.508,3.506
		c1.064,1.838,2.311,6.131,0.703,8.42c-2.669,0.092-1.459-3.688-3.514-4.207C777.698,562.323,762.871,563.799,747.874,564.233z"/>
</g>
<g id="Alabama">
	<path fill="#002857" d="M690.015,579.135c-0.936-0.104-2.109,2.854-2.801,0.703c-1.909-0.502,0.502,3.307-1.398,2.805
		c-2.319-0.488-1.624-3.994-4.911-3.508c0.462-3.736-0.415-6.135-2.805-7.012c-1.447,1.824-1.485,5.059-1.401,8.416
		c-1.636,0-3.275,0-4.909,0c-1.49-5.668-1.345-11.98-2.111-18.225c-0.954-7.813-3.797-14.805-2.798-24.549
		c1.787-17.486,0.487-40.701,1.396-60.313c1.178-2.641-3.264-3.195-1.396-4.207c16.495-0.572,31.571-2.551,46.991-4.205
		c2.656,11.072,7.207,23.225,10.517,35.063c1.125,4.016,1.488,8.262,2.802,11.924c0.665,1.85,1.78,4.664,2.804,6.313
		c0.653,1.043,2.295,1.668,2.806,2.807c0.658,1.451-0.887,4.217,1.403,4.904c-1.326,2.295-1.543,3.732-2.111,7.014
		c-0.703,4.137-0.241,6.264,2.111,9.826c-0.144,2.189,0.473,5.146-0.704,6.314c0.097,2.949,2.716,3.357,2.805,6.313
		c-10.899,0.559-23.983,2.971-35.768,4.207c-5.639,0.582-13.465-0.906-15.43,3.506c0.482,3.258,3.234,4.252,4.91,6.313
		C689.049,575.651,690.348,576.032,690.015,579.135z"/>
</g>
<g id="Mississippi">
	<path fill="#002857" d="M613.802,503.625c0.114-0.814-0.155-1.248-0.703-1.4c0.637-1.234,2.464-1.283,3.515-2.107
		c-2.676-5.609,7.414-7.906,4.908-13.322c0.943-1.57,2.018-1.58,2.104-2.809c0.225-3.215,0.664-1.939,2.111-4.207
		c0.289-0.453,0.994-1.018,0.701-2.104c12.493-1.533,26.187-1.867,38.572-3.506c-0.327,1.496,1.002,1.334,2.106,1.402
		c-0.825,17.617-0.563,35.527-1.403,53.303c-0.833,17.732,3.313,34.346,4.917,49.971v1.227c-1.589,0.391,0.851,1.092-0.703,2.104
		c-1.789-0.695-3.399-1.994-4.205,0c-2.053-0.504-2.28-1.371-4.203-1.4c-2.919-0.051-5.887,2.959-9.116,2.807
		c-1.314,0.787-1.49,2.715-2.804,3.506c-3.08,0.275-2.423-3.191-3.51-4.91c-0.544-2.025-2.56-2.582-3.509-4.209
		c-0.623-3.896,1.347-5.199,1.401-8.414c-11.357-1.541-23.894,1.822-36.472,1.402c-1.788-2.711-1.611-6.443,1.403-5.611
		c-0.84-1.008-0.595-3.146-0.703-3.508c-0.342-1.145,0.214-2.41,0.703-3.508c-0.023,0.057,1.202-0.299,0.703-0.699
		c-2.004-1.605,3.512-2.809,1.399-5.611c1.934-1.34,3.567-2.977,4.913-4.908c-0.357-2.055,2.229-3.955-1.399-3.508
		c1.418-0.924,2.437-2.232,4.204-2.805c-0.29-2.051-2.397-2.275-3.511-3.508c1.539-1.461-0.616-2.268,0.703-3.506
		c-0.221-0.953-1.752-0.584-2.801-0.705c0.686-0.713,1.388-1.418,2.104-2.105c-0.109-0.822-1.275-0.592-2.104-0.703
		c-0.338-2.199,0.87-2.869,2.104-3.512c-0.188-1.441-2.611-0.66-2.803-2.104c-1.024-2.871,2.513-2.672,1.401-6.313
		c-0.09-0.295-1.374-1.238-1.401-1.404c-0.243-1.354,0.854-2.361,0.703-2.805c-0.665-1.949-2.588-1.76-2.107-3.506
		c1.021-0.861,0.943-2.801,2.805-2.807c-0.112-0.824-1.277-0.59-2.106-0.703c0.077-1.324,2.316-0.488,2.106-2.107"/>
</g>
<g id="Florida">
	<path fill="#002857" d="M829.58,599.475c0.921,0.248,1.104,1.234,2.11,1.404C831.399,602.625,828.966,600.92,829.58,599.475z"/>
	<path fill="#002857" d="M836.945,680.831c1.062-0.316,2.562-0.42,2.804-1.752"/>
	<line fill="none" x1="839.75" y1="679.077" x2="839.396" y2="679.426"/>
	<line fill="none" x1="792.409" y1="621.215" x2="791.708" y2="620.868"/>
	<line fill="none" x1="791.708" y1="622.969" x2="792.409" y2="622.62"/>
	<line fill="none" x1="791.006" y1="622.62" x2="791.708" y2="622.969"/>
	<line fill="none" x1="791.708" y1="620.868" x2="791.006" y2="621.215"/>
	<path fill="#002857" d="M791.356,621.918c-0.619-5.941,2.354-13.475-0.351-20.338c-2.511-1.23-3.037-4.436-4.91-6.314
		c-1.738-0.908-3.396,1.566-3.506,0c-3.721-1.424-4.93-5.357-9.118-6.313c1.228-3.551-2.213-3.246-4.208-4.908
		c-1.104-0.93-1.063-2.691-2.104-3.508c-0.49-0.387-5.701-2.576-7.013-2.805c-1.521-0.268-4.282-0.416-5.606,0
		c-0.933,0.291-1.073,1.014-2.104,2.104c0.063-0.072-2.15,1.943-2.11,1.404c-0.029,0.389,1.636,1.168,2.11,0.699
		c-1.065,1.066-2.2,0.744-3.516,1.404c-2.149,1.096-3.181,2.904-4.199,4.207c-1.046,0.893-1.517-1.375-1.401-1.402
		c-1.328,0.309-1.427,2.074-2.807,2.805c-1.868,0.986-3.904-0.496-4.908,1.404c-1.068-2.91-2.023-5.928-5.612-6.313
		c0.704-0.969,1.156,0.299,2.111-1.404c-1.672-1.365-3.639-2.447-6.313-2.805c0.862-1.242,2.177-2.033,2.799-3.508
		c-0.097-2.189-2.229,1.266-2.799,1.404c-1.245,0.297-3.558-2.045-3.514,1.398c-2.392-0.176-3.368-1.77-6.313-1.398
		c3.698-3.365-3.548-3.678-5.605-4.209c-1.834,2.84-6.298,3.053-9.825,4.209c0.032-1.152-1.119-2.348-1.403-4.912
		c-2.119-0.498-0.646,2.359-1.4,2.807c-0.246,0.145-0.892-1.367-1.396-1.402c-1.507-0.1-0.591,2.164-2.111,4.209h-1.402
		c-0.502-1.188-3.717-3.225-1.401-4.91c-0.904-2.604-4.754-2.26-4.909-5.611c0.958-4.332,5.54-2.375,8.42-2.803
		c12.835-1.908,28.714-3.443,42.083-4.912c0.922,1.885,1.879,3.729,2.803,5.611c18.266-0.006,36.799-3.357,53.305-2.805
		c-0.105,1.742,0.362,2.91,1.401,3.504c6.034,0.35,0.542-8.363,2.804-10.518c2.002-0.943,5.568,1.645,9.821,0.701
		c0.791,2.113-0.373,5.252,2.805,6.313c-0.021,4.418,2.48,8.078,4.201,11.924c3.734,8.336,8.756,16.961,15.429,23.143
		c-0.301,1.041-0.896-0.275-2.104,0c-0.584,3.291,1.302,6.238,2.805,9.117c1.33,2.545,3.316,5.322,4.91,7.713
		c1.207,1.826,1.881,3.215,3.508,4.912c2.23,2.328,3.303,7.932,6.311,10.52c0.063,0.996,0.117,1.986-0.7,2.105
		c3.613,1.574,4.46,2.701,6.313,8.414c1.281,3.961,2.699,16.861,1.403,22.445c-0.396,1.707-1.895,3.303-2.111,4.91
		c-0.219,1.648,0.861,3.369,0.704,4.908c-0.171,1.73-1.961,2.512-1.402,4.209c-4.208-0.703-5.131,4.83-9.118,2.102l-0.343-0.35
		l-0.35,0.35c-0.102-2.244-1.591-3.086-4.208-2.803c-1.755-2.336-3.676-4.545-5.606-7.012c-1.496-1.906-1.547-3.404-4.206-4.207
		c-2.038-0.617-3.868,0.473-5.609-0.701c-1.447-2.529-3.11-4.844-3.508-8.422c-0.194-1.439-1.869-1.396-2.805-2.105
		c0.182-2.623,1.629-3.982,2.805-5.607c-3.366-0.564-2.912,2.699-4.205,4.209c-2.352-0.951-2.776-6.688-1.403-9.119
		c-0.867-1.229-2.873,1.797-4.91,0c-1.957,0.902,2.209,1.451,1.402,3.506c-5.003-1.064-6.68-5.477-8.416-9.816
		c-0.397-2.176-3.303-1.844-3.516-4.207c2.393,0.221,1.554-3.074,2.11-4.199c0.596-1.227,2.746-1.893,2.104-3.518
		c-0.903-3.816-3.387-1.482-6.661-3.506l-0.346,0.701c1.346,0.297,0.061,3.213,2.805,2.111c-0.543,0.623-0.753,1.584-0.702,2.807
		c-2.62,0.742-1.999-1.75-4.209-1.402c-0.58-1.99,0.988-1.826,0.704-3.516L791.356,621.918z"/>
</g>
<g id="Louisiana">
	<path fill="#002857" d="M612.867,525.836c1.73,0.131-0.166,1.57,0,2.805c0.125,0.926,1.402,2.029,1.402,2.102
		c-0.014,0.842-1.61,1.211-1.402,2.107c0.181,0.807,1.207,0.912,1.402,1.4c0.225,0.582-0.294,1.553,0,2.105
		c0.681,1.309,1.838,2.225,2.8,3.506c-0.491,1.85-3.193,1.482-3.509,3.506c0.513,0.666,1.273,1.064,2.108,1.402
		c-0.201,0.824-3.979,2.031-0.702,2.111c-1.342,1.936-2.979,3.563-4.91,4.912c1.267,2.713-2.94,5.777-2.806,7.01
		c0.132,1.189,0.817,1.549,0.704,2.811c-0.013,0.084-1.309-0.096-1.398,0c-0.671,0.688,1.301,1.91,0.701,2.805
		c-0.563,0.369-1.138,0.73-2.104,0.703c0.776,2.354,2.098,5.584,0,7.012c12.636-1.158,26.081-1.506,38.568-2.805
		c-0.984,1.822-0.976,4.645-2.106,6.313c1.373,4.598,4.194,6.631,6.312,11.229c-0.862,2.391-2.084-0.377-3.507-0.705
		c-1.049-0.244-2.512,0.396-3.506,0c-0.83-0.332-2.473-3.422-4.914-2.805c-2.571,1.402-4.352,3.6-4.913,7.014
		c3.355,3.652,11.694-0.42,13.325-0.705c2.469,1.201-1.76,1.418-1.402,2.807c0.935,1.641,3.134,2.01,4.908,2.807
		c2.015-0.563,0.441-4.701,3.512-4.209c-0.805,2.914,1.473,2.73,1.399,4.91c-3.239-0.301-4.719,1.174-3.507,3.514
		c-3.363-0.268-0.597,1.217-2.807,2.104c-0.795,2.582,2.931,1.799,4.208,2.805c0.413,0.326,0.179,1.869,0.702,2.107
		c0.319,0.145,1.287-1.041,2.11-0.703c0.413,0.172,1.53,2.441,4.2,1.4c1.319,1.629,2.905,2.99,1.402,5.607
		c-1.709-0.387-2.557-1.646-3.508-2.805c-0.712,0.461-0.727,1.615-2.104,1.398c0.089-1.258-0.864-1.471-0.703-2.799
		c-2.231,1.064-3.216-0.938-4.207-1.404c-0.515-0.246-1.634,0.33-2.106,0c-0.383-0.26-0.312-1.762-0.704-2.107
		c-1.11-0.971-2.145,0.178-4.203-0.701c-1.331-0.561-2.62-2.584-4.91-2.107c-0.791,3.361,2.672,2.471,3.508,4.205
		c1.146,1.637-1.348,1.893-1.402,2.104c-0.256,1.025,2.313,3.654-0.701,4.207c-2.354,0.719-1.097-2.184-1.4-3.508
		c-0.743-0.441-2.914,0.584-3.511,0c-0.691-0.672,0.461-1.713-2.108-0.703c-1.834,0.729-2.994,1.787-3.508,4.91
		c-2-0.006-6.209-2.594-7.714-1.395c-0.62-3.598-4.421-4-3.509-9.115c-1.5-0.33-1.341,1-1.403,2.102
		c-2.214,0.348-2.472-1.262-4.911-0.703c-0.483-3.027-2.338-4.682-6.313-4.201c0-0.703,0-1.404,0-2.107
		c-2.552,0.713-4.339,2.201-7.013,2.801c-1.961,0.902,2.208,1.447,1.401,3.51c-1.435-1.051-2.261,1.279-3.511,1.4
		c-1.128,0.104-3.813-1.191-5.605-1.4c-3.317-0.381-5.018-0.969-8.42-2.109c-1.908-0.641-3.113-2.09-5.606-1.4
		c1.476-2.723,0.12-5.338-1.401-7.014c-0.338,1.809-2.372,5.525-1.401,6.313c-1.454,2.287-6.498,0.98-9.118,2.105
		c-0.982-1.547,1.563-1.615,2.109-2.803c0.433-0.953-0.287-2.482,0-3.51c0.186-0.68,1.293-1.166,1.399-2.105
		c0.235-1.977-1.266-3.057-1.399-4.91c-0.095-1.268,0.396-4.396,0.702-5.611c0.383-1.547,2.418-3.092,2.805-4.908
		c0.708-3.334,0.42-8.303,0-9.82c-0.303-1.107-2.287-1.91-2.805-2.803c-0.807-1.389-0.33-5.27-2.805-5.611
		c0.705-5.848-2.793-7.484-4.908-10.518c0.515-8.229-0.801-14.631-0.702-22.445c12.962-0.207,27.42-1.398,40.679-2.105
		c4.54-0.238,9.167-0.295,13.322,0C610.32,527.76,611.548,527.29,612.867,525.836z"/>
	<path fill="#002857" d="M605.151,605.788c-1.479,1.547-2.071-0.9-4.207-0.703C601.639,603.372,605.217,603.202,605.151,605.788z"/>
	<path fill="#002857" d="M616.374,609.293c0.762,0.174,0.476,1.396,1.402,1.404C617.156,612.598,614.666,610.108,616.374,609.293z"
		/>
</g>
<g id="Texas">
	<path fill="#002857" d="M496.445,647.165c-2.118-0.943-5.604-0.943-7.715,0c0.809,1.656,1.883,0.666,2.806,1.404
		c0.699,0.561,1.167,1.563,2.103,2.805c-0.167,2.873-2.127,3.951-2.103,7.012c-4.197,0.916-5.227-1.314-7.715-2.104
		c-0.116,2.219,1.863,2.342,1.396,4.908c2.523,0.244,3.386,1.074,5.607,0c-0.916,1.889-0.832,4.775-2.806,5.611
		c-1.442,3.189,1.524,4.289,2.111,6.313c0.541,1.891,0.202,4.383,0.7,6.309c0.425,1.643,1.732,2.711,2.104,4.209
		c0.624,2.514-0.529,5.363,1.403,7.014c0.279,1.68-3.193-0.393-2.104,2.104c-3.406-0.041-4.454-4.047-7.714-4.908
		c-3.06-0.805-6.167,0.574-10.521,0c-2.47-1.973-4.156-4.723-9.117-4.207c-0.892-2.848-3.958-3.518-7.715-3.51
		c-0.733-0.307-0.258-1.465-0.701-2.104c-0.125-0.186-1.402-0.705-1.401-0.705c-0.577-1.479-0.221-3.465-0.701-4.908
		c-1.064-3.168-3.076-5.586-4.915-7.715c-0.482-1.465,0.723-1.863,0.704-2.807c-0.038-1.525-1.297-1.754-1.403-2.801
		c-0.169-1.688,0.96-3.518,0-5.613c-0.762-2.041-2.864-2.746-4.909-3.506c-1.756-3.854-4.604-6.617-6.312-10.518
		c-0.639-1.234-2.457-1.285-3.511-2.105c-0.474-1.596-1.025-2.619-1.398-5.609c-0.021-0.096-0.356-1.881-1.404-3.508
		c-0.178-0.268-1.305-0.469-1.401-0.701c-0.172-0.383,0.197-1.027,0-1.404c-0.65-1.189-0.985-2.334-2.11-3.508
		c-0.582-0.611-0.713-3.166-1.4-4.908c-1.231-3.146-3.988-4.896-6.313-7.715c-1.02-1.23-3.075-3.486-4.912-4.91
		c-0.299-0.23-1.058-0.369-0.701,0c-2.291-2.365-2.483-3.771-4.208-5.609c-2.946,0.744-7.345,0.404-11.917-0.701
		c-2.478-0.6-5.305-3.154-7.013,0.701c-2.352-0.939-5.024,0.424-6.312,2.111c-1.105,1.443-2.133,4.75-3.507,7.713
		c-1.198,2.586-4.007,5.125-6.312,7.012c-3.979,0.104-6.93-2.887-9.825-4.912c-0.924-0.643-1.493-1.771-2.105-2.104
		c-1.511-0.816-3.517-0.424-4.909-1.402c-2.914-2.041-4.363-6.379-8.419-7.014c-0.122-4.035-4.719-6.072-3.507-11.223
		c0.382-1.615,0.502-3.053-0.703-5.611c-0.127-0.26-0.392-1.588-0.703-2.104c-0.141-0.24-1.331-0.512-1.402-0.705
		c-0.286-0.771,0.393-2.098,0-2.793c-0.646-1.176-1.324-1.953-2.104-2.809c-1.089-1.189-2.155-2.551-3.511-3.512
		c-1.024-0.725-3.03-0.984-4.204-2.113c-0.864-0.82-1.355-2.467-2.108-3.504c-0.824-1.148-1.949-1.752-2.802-2.805
		c-3.034-3.744-4.904-7.143-9.823-9.119c-0.119-1.984-1.286-2.912-1.404-4.908c-1.737-2.705-6.148-2.736-5.61-7.715
		c22.042,2.512,44.64,4.453,68.029,5.609c0.921-0.252,1.105-1.232,2.108-1.4c1.956-34.746,4.639-68.771,7.013-103.102
		c17.784,1.391,36.751,1.588,54.705,2.805c0.064,15.264-0.194,30.197-1.399,44.188c3.216,0.75,4.666,3.273,7.014,4.91
		c3.521,0.459,5.661-0.883,7.716,0c1.168,0.934,0.233,3.973,1.401,4.908c5.412,0.197,10.249,0.971,13.325,3.506
		c2.656-1.686,2.907-1.908,7.014-1.402c-0.326,2.195,0.609,3.131,2.805,2.809c-0.223,1.629,0.113,2.689,0.703,3.506
		c2.557-0.01,3.154-1.99,4.915-2.797c1.689,0.645,2.858,1.813,3.506,3.506c2.016,0.143,3.559-0.18,4.207-1.4
		c1.58,0.289-0.104,3.844,2.104,3.506c1.588,0.09,1.867-2.252,2.807-3.506c0.255-0.342,0.887-0.604,0.701-1.404
		c2.711,0.998,3.415,2.914,7.013,1.404c0.932,2.338,3.963,2.576,5.604,4.205c1.323-1.48,3.518-2.105,4.911-3.514
		c2.059-0.623,2.151-0.623,4.205,0c1.748-0.348,2.883-1.324,4.208-2.105c1.317,0.799,5.417,3.08,7.012,0
		c3.021-0.885,5.246,3.301,7.015,4.209c0.556,0.287,1.536-0.268,2.104,0c0.265,0.127,0.502,1.334,0.703,1.402
		c2.198,0.762,5.472-0.141,6.313,2.797c1.983-0.863,4.322-0.863,6.313,0c0.906,11.479,0.933,23.852,1.402,35.77
		c1.079,1.721,2.815,2.793,4.203,4.207c-0.348,2.207,1.527,2.742,0,4.209c0.463,0.822,0.752,1.832,1.398,2.803
		c0.503,0.746,1.769,1.42,2.11,2.107c0.269,0.553-0.302,1.564,0,2.104c1.307,2.334,3.107,2.697,2.801,7.014
		c-0.004,0.059-0.823,0.072-0.702,0.701c0.101,0.512,0.649,2.578,0.702,4.207c-3.276,3.461-4.205,11.137-2.105,16.131
		c-1.564,2.441-7.26,5.721-3.509,9.119c-1.808,1.066-3.157,0.805-4.913,1.4c-1.882,0.643-3.401,2.438-4.91,2.805
		c-1.132,0.279-1.219-0.785-2.105-0.705c-0.63,0.063-3.227,1.027-4.912,0.705c0.967-0.906,0.696-3.045,0.703-4.906
		c-2.472-1.961-3.034,1.846-4.204,2.104c-1.396,0.309-1.531-2.752-2.804-0.701c-0.003,3.717,1.54,5.27,2.804,9.115
		c-2.274,0.527-2.482,3.119-4.912,3.51c-0.176,6.141-6.291,6.328-9.117,9.816c-2.638-0.539-3.354,0.857-5.605,0.705
		c-0.949,0.219-0.583,1.75-0.704,2.801c-1.546,0.344-1.006-1.271-2.106-1.396c0.599,0.059-2.627,1.582-3.508,0.699
		c-0.141-0.141,0.163-1.346,0-1.402c-1.339-0.473-3.877,2.277-4.205-1.4c-2.058,0.592,0.424,2.26,0,3.516
		c-3.039,0.461-1.616-3.527-4.91-2.805c-1.735,1.586,3.995,4.461,1.4,7.012c0.623-0.543,1.587-0.754,2.803-0.701
		c-2.108,3.279-4.944,2.672-7.013,0c-1.605,1.988,1.227,4.801-1.401,6.313c-0.972-3.018-4.701,2.322-7.013,0
		c0.783,2.189-0.703,3.873,2.104,4.906c-0.196-1.131,0.663-1.205,0.703-2.105C500.297,643.6,496.141,644.946,496.445,647.165z"/>
</g>
<polygon fill="#FFFFFF" points="741.671,385.683 726.4,376.237 712.701,387.838 716.964,370.4 701.693,360.957 719.598,359.622 
	723.859,342.18 730.662,358.795 748.568,357.463 734.868,369.067 "/>
</svg>
