<?xml version="1.0"?>
<svg xmlns="http://www.w3.org/2000/svg" height="512px" viewBox="0 0 512 512" width="512px" class=""><g transform="matrix(1 -2.46519e-32 2.46519e-32 1 -1.13687e-13 -5)"><path d="m512 289.738281v-67.476562l-68.195312-18.140625c-4.25-15.398438-10.40625-30.1875-18.390626-44.191406l34.875-60.574219-47.644531-47.644531-60.574219 34.875c-14.003906-7.980469-28.792968-14.136719-44.191406-18.390626l-18.140625-68.195312h-67.476562l-18.140625 68.195312c-15.398438 4.253907-30.1875 10.40625-44.191406 18.390626l-60.574219-34.878907-47.644531 47.648438 34.875 60.574219c-7.984376 14.003906-14.140626 28.792968-18.390626 44.191406l-68.195312 18.140625v67.476562l68.195312 18.140625c4.253907 15.398438 10.40625 30.1875 18.390626 44.191406l-34.875 60.574219 47.644531 47.644531 60.574219-34.875c14.003906 7.980469 28.792968 14.136719 44.191406 18.390626l18.140625 68.195312h67.476562l18.140625-68.195312c15.398438-4.253907 30.1875-10.40625 44.191406-18.390626l60.574219 34.875 47.644531-47.644531-34.875-60.574219c7.980469-14.003906 14.136719-28.792968 18.390626-44.191406zm-101.914062-14.28125-2.503907 12.097657c-3.914062 18.910156-11.363281 36.816406-22.140625 53.230468l-6.753906 10.289063 31.640625 54.960937-4.292969 4.292969-54.960937-31.640625-10.289063 6.753906c-16.414062 10.777344-34.320312 18.226563-53.230468 22.140625l-12.097657 2.503907-16.46875 61.914062h-5.976562l-16.46875-61.914062-12.101563-2.503907c-18.90625-3.914062-36.8125-11.363281-53.230468-22.140625l-10.289063-6.753906-54.960937 31.640625-4.292969-4.292969 31.644531-54.960937-6.753906-10.289063c-10.777344-16.414062-18.226563-34.320312-22.140625-53.230468l-2.503907-12.097657-61.914062-16.46875v-5.976562l61.914062-16.46875 2.503907-12.101563c3.914062-18.902344 11.363281-36.8125 22.140625-53.230468l6.753906-10.289063-31.640625-54.960937 4.292969-4.292969 54.960937 31.644531 10.289063-6.753906c16.414062-10.777344 34.320312-18.226563 53.230468-22.140625l12.097657-2.503907 16.46875-61.914062h5.976562l16.46875 61.914062 12.101563 2.503907c18.90625 3.914062 36.8125 11.363281 53.226562 22.140625l10.289063 6.757812 54.964843-31.648437 4.292969 4.296875-31.644531 54.960937 6.753906 10.289063c10.777344 16.414062 18.226563 34.324218 22.140625 53.230468l2.503907 12.097657 61.914062 16.46875v5.976562zm-78.964844-102.820312 29.757812 26.726562-131.683594 146.617188-86.984374-82.796875 27.578124-28.972656 57.160157 54.40625zm0 0" data-original="#000000" class="active-path" data-old_color="#FFE000" fill="#FF7C00"/></g> </svg>
