<?xml version="1.0"?>
<svg xmlns="http://www.w3.org/2000/svg" height="512px" viewBox="-61 0 512 512" width="512px" class=""><g><path d="m390 45v-45h-390v45c0 19.554688 12.539062 36.226562 30 42.421875v337.15625c-17.460938 6.195313-30 22.867187-30 42.421875v45h390v-45c0-19.554688-12.539062-36.226562-30-42.421875v-337.15625c17.460938-6.195313 30-22.867187 30-42.421875zm-90 377v-57.832031c0-35.1875-17.480469-67.847657-46.757812-87.367188l-31.199219-20.800781 31.199219-20.800781c29.277343-19.519531 46.757812-52.179688 46.757812-87.367188v-57.832031h30v332zm-210-332v57.832031c0 35.1875 17.480469 67.847657 46.757812 87.367188l31.199219 20.800781-31.199219 20.800781c-29.277343 19.519531-46.757812 52.179688-46.757812 87.367188v57.832031h-30v-332zm30 0h150v57.832031c0 25.136719-12.484375 48.464844-33.398438 62.40625l-41.601562 27.734375-41.601562-27.734375c-20.914063-13.941406-33.398438-37.269531-33.398438-62.40625zm75 184.027344 41.601562 27.734375c11.175782 7.453125 19.941407 17.585937 25.683594 29.238281h-134.570312c5.742187-11.65625 14.507812-21.785156 25.683594-29.238281zm-75 90.140625c0-1.058594.03125-2.113281.074219-3.167969h149.851562c.042969 1.050781.074219 2.105469.074219 3.167969v57.832031h-150zm-90-334.167969h330v15c0 8.269531-6.730469 15-15 15h-300c-8.269531 0-15-6.730469-15-15zm330 452h-330v-15c0-8.269531 6.730469-15 15-15h300c8.269531 0 15 6.730469 15 15zm0 0" data-original="#000000" class="active-path" data-old_color="#000000" fill="#f57f36"/></g> </svg>
